<?xml version="1.0" encoding="utf-8"?>
<!-- Generator: Adobe Illustrator 21.0.0, SVG Export Plug-In . SVG Version: 6.00 Build 0)  -->
<svg version="1.1" id="Слой_1" xmlns="http://www.w3.org/2000/svg" xmlns:xlink="http://www.w3.org/1999/xlink" x="0px" y="0px"
	 viewBox="0 0 1176 412" style="enable-background:new 0 0 1176 412;" xml:space="preserve">
<style type="text/css">
	.st0{fill:none;stroke:#5D5D5D;stroke-width:0.25;stroke-miterlimit:10;}
	.st1{fill:#5D5D5D;}
	.st2{fill:#333333;}
	.st3{fill:none;stroke:#579A94;stroke-miterlimit:10;}
	.st4{fill:#579A94;}
	.st5{fill:#FFFFFF;stroke:#579A94;stroke-miterlimit:10;}
</style>
<g>
	<g>
		<g>
			<line class="st0" x1="134" y1="327.63" x2="134" y2="58.916"/>
			<g>
				<circle class="st1" cx="134" cy="327.583" r="0.94"/>
			</g>
			<g>
				<circle class="st1" cx="134" cy="58.963" r="0.94"/>
			</g>
		</g>
	</g>
	<g>
		<g>
			<line class="st0" x1="366.25" y1="327.63" x2="366.25" y2="58.916"/>
			<g>
				<circle class="st1" cx="366.25" cy="327.583" r="0.94"/>
			</g>
			<g>
				<circle class="st1" cx="366.25" cy="58.963" r="0.94"/>
			</g>
		</g>
	</g>
	<g>
		<g>
			<line class="st0" x1="598.5" y1="327.63" x2="598.5" y2="58.916"/>
			<g>
				<circle class="st1" cx="598.5" cy="327.583" r="0.94"/>
			</g>
			<g>
				<circle class="st1" cx="598.5" cy="58.963" r="0.94"/>
			</g>
		</g>
	</g>
	<g>
		<g>
			<line class="st0" x1="830.75" y1="327.63" x2="830.75" y2="58.916"/>
			<g>
				<circle class="st1" cx="830.75" cy="327.583" r="0.94"/>
			</g>
			<g>
				<circle class="st1" cx="830.75" cy="58.963" r="0.94"/>
			</g>
		</g>
	</g>
	<g>
		<g>
			<line class="st0" x1="1063" y1="327.63" x2="1063" y2="58.916"/>
			<g>
				<circle class="st1" cx="1063" cy="327.583" r="0.94"/>
			</g>
			<g>
				<circle class="st1" cx="1063" cy="58.963" r="0.94"/>
			</g>
		</g>
	</g>
	<g>
		<g>
			<path class="st2" d="M49.546,128.021h-0.67v-7.28c0-0.661,0.027-1.347,0.082-2.058c-0.068,0.068-0.139,0.134-0.212,0.198
				s-0.777,0.618-2.112,1.661l-0.39-0.485l2.714-2.03h0.588V128.021z"/>
			<path class="st2" d="M55.158,128.021l4.115-9.338H53.62v-0.656h6.467v0.499l-4.129,9.495H55.158z"/>
			<path class="st2" d="M68.078,122.996c0,1.754-0.268,3.053-0.803,3.896s-1.346,1.265-2.43,1.265c-1.043,0-1.836-0.434-2.379-1.302
				s-0.813-2.154-0.813-3.859c0-1.741,0.263-3.031,0.79-3.869s1.327-1.258,2.403-1.258c1.053,0,1.855,0.434,2.406,1.302
				S68.078,121.314,68.078,122.996z M62.391,122.996c0,1.549,0.203,2.694,0.608,3.435s1.021,1.111,1.846,1.111
				c0.861,0,1.489-0.383,1.883-1.148s0.591-1.898,0.591-3.397c0-1.477-0.197-2.598-0.591-3.363s-1.022-1.148-1.883-1.148
				s-1.486,0.383-1.873,1.148S62.391,121.52,62.391,122.996z"/>
			<path class="st2" d="M73.561,121.007c0,1.03-0.171,1.813-0.513,2.348s-0.834,0.803-1.477,0.803c-0.606,0-1.081-0.274-1.425-0.824
				s-0.516-1.325-0.516-2.328c0-1.016,0.164-1.791,0.492-2.324s0.811-0.8,1.449-0.8c0.633,0,1.124,0.274,1.47,0.824
				S73.561,120.022,73.561,121.007z M70.3,121.007c0,0.848,0.103,1.484,0.308,1.911s0.526,0.639,0.964,0.639
				c0.879,0,1.319-0.85,1.319-2.55c0-0.838-0.113-1.469-0.338-1.89s-0.553-0.632-0.981-0.632c-0.438,0-0.759,0.211-0.964,0.632
				S70.3,120.168,70.3,121.007z M77.607,118.026l-5.544,9.994h-0.656l5.544-9.994H77.607z M79.385,125.026
				c0,1.03-0.168,1.813-0.506,2.348s-0.827,0.803-1.47,0.803c-0.62,0-1.101-0.277-1.442-0.831s-0.513-1.327-0.513-2.321
				c0-1.025,0.167-1.802,0.502-2.331s0.819-0.793,1.453-0.793c0.625,0,1.11,0.273,1.456,0.82S79.385,124.038,79.385,125.026z
				 M76.124,125.026c0,0.843,0.103,1.476,0.308,1.897s0.526,0.632,0.964,0.632c0.879,0,1.319-0.843,1.319-2.529
				c0-1.682-0.44-2.522-1.319-2.522c-0.438,0-0.759,0.208-0.964,0.625S76.124,124.179,76.124,125.026z"/>
		</g>
	</g>
	<g>
		<g>
			<path class="st2" d="M49.546,181.021h-0.67v-7.28c0-0.661,0.027-1.347,0.082-2.058c-0.068,0.068-0.139,0.134-0.212,0.198
				s-0.777,0.618-2.112,1.661l-0.39-0.485l2.714-2.03h0.588V181.021z"/>
			<path class="st2" d="M59.568,173.378c0,0.62-0.195,1.142-0.584,1.565s-0.913,0.695-1.569,0.813v0.041
				c0.802,0.1,1.413,0.355,1.832,0.766s0.629,0.961,0.629,1.654c0,0.934-0.318,1.658-0.954,2.17s-1.551,0.769-2.745,0.769
				c-1.016,0-1.903-0.189-2.659-0.567v-0.677c0.383,0.201,0.813,0.358,1.289,0.472s0.924,0.171,1.343,0.171
				c1.007,0,1.764-0.204,2.27-0.612s0.759-0.983,0.759-1.726c0-0.661-0.259-1.169-0.776-1.524s-1.277-0.533-2.28-0.533h-1.08v-0.656
				h1.094c0.83,0,1.487-0.197,1.972-0.591s0.728-0.929,0.728-1.603c0-0.556-0.197-1.001-0.591-1.336s-0.91-0.502-1.548-0.502
				c-0.497,0-0.95,0.069-1.36,0.208s-0.871,0.377-1.381,0.714l-0.335-0.458c0.387-0.324,0.854-0.58,1.401-0.769
				s1.101-0.284,1.661-0.284c0.92,0,1.631,0.218,2.133,0.653S59.568,172.585,59.568,173.378z"/>
			<path class="st2" d="M68.079,175.996c0,1.754-0.268,3.053-0.803,3.896s-1.346,1.265-2.43,1.265c-1.043,0-1.836-0.434-2.379-1.302
				s-0.813-2.154-0.813-3.859c0-1.741,0.263-3.031,0.79-3.869s1.327-1.258,2.403-1.258c1.053,0,1.855,0.434,2.406,1.302
				S68.079,174.314,68.079,175.996z M62.391,175.996c0,1.549,0.203,2.694,0.608,3.435s1.021,1.111,1.846,1.111
				c0.861,0,1.489-0.383,1.883-1.148s0.591-1.898,0.591-3.397c0-1.477-0.197-2.598-0.591-3.363s-1.022-1.148-1.883-1.148
				s-1.486,0.383-1.873,1.148S62.391,174.52,62.391,175.996z"/>
			<path class="st2" d="M73.561,174.007c0,1.03-0.171,1.813-0.513,2.348s-0.834,0.803-1.477,0.803c-0.606,0-1.081-0.274-1.425-0.824
				s-0.516-1.325-0.516-2.328c0-1.016,0.164-1.791,0.492-2.324s0.811-0.8,1.449-0.8c0.633,0,1.124,0.274,1.47,0.824
				S73.561,173.022,73.561,174.007z M70.3,174.007c0,0.848,0.103,1.484,0.308,1.911s0.526,0.639,0.964,0.639
				c0.879,0,1.319-0.85,1.319-2.55c0-0.838-0.113-1.469-0.338-1.89s-0.553-0.632-0.981-0.632c-0.438,0-0.759,0.211-0.964,0.632
				S70.3,173.168,70.3,174.007z M77.608,171.026l-5.544,9.994h-0.656l5.544-9.994H77.608z M79.385,178.026
				c0,1.03-0.168,1.813-0.506,2.348s-0.827,0.803-1.47,0.803c-0.62,0-1.101-0.277-1.442-0.831s-0.513-1.327-0.513-2.321
				c0-1.025,0.167-1.802,0.502-2.331s0.819-0.793,1.453-0.793c0.625,0,1.11,0.273,1.456,0.82S79.385,177.038,79.385,178.026z
				 M76.125,178.026c0,0.843,0.103,1.476,0.308,1.897s0.526,0.632,0.964,0.632c0.879,0,1.319-0.843,1.319-2.529
				c0-1.682-0.44-2.522-1.319-2.522c-0.438,0-0.759,0.208-0.964,0.625S76.125,177.179,76.125,178.026z"/>
		</g>
	</g>
	<g>
		<g>
			<path class="st2" d="M49.547,230.611h-0.67v-7.28c0-0.661,0.027-1.347,0.082-2.058c-0.068,0.068-0.139,0.135-0.212,0.198
				s-0.777,0.618-2.112,1.661l-0.39-0.485l2.714-2.03h0.588V230.611z"/>
			<path class="st2" d="M57.538,230.611h-0.67v-7.28c0-0.661,0.027-1.347,0.082-2.058c-0.068,0.068-0.139,0.135-0.212,0.198
				s-0.777,0.618-2.112,1.661l-0.39-0.485l2.714-2.03h0.588V230.611z"/>
			<path class="st2" d="M68.079,225.587c0,1.755-0.268,3.054-0.803,3.896s-1.346,1.265-2.43,1.265c-1.043,0-1.836-0.434-2.379-1.303
				c-0.542-0.867-0.813-2.154-0.813-3.858c0-1.741,0.263-3.03,0.79-3.869s1.327-1.258,2.403-1.258c1.053,0,1.855,0.435,2.406,1.302
				C67.803,222.631,68.079,223.905,68.079,225.587z M62.392,225.587c0,1.55,0.203,2.694,0.608,3.435
				c0.406,0.741,1.021,1.111,1.846,1.111c0.861,0,1.489-0.383,1.883-1.148s0.591-1.898,0.591-3.397c0-1.477-0.197-2.598-0.591-3.363
				s-1.022-1.148-1.883-1.148s-1.486,0.383-1.873,1.148S62.392,224.11,62.392,225.587z"/>
			<path class="st2" d="M73.562,223.598c0,1.029-0.171,1.813-0.513,2.348c-0.342,0.536-0.834,0.804-1.477,0.804
				c-0.606,0-1.081-0.274-1.425-0.823c-0.344-0.55-0.516-1.326-0.516-2.328c0-1.016,0.164-1.791,0.492-2.324s0.811-0.8,1.449-0.8
				c0.633,0,1.124,0.274,1.47,0.823C73.388,221.847,73.562,222.613,73.562,223.598z M70.301,223.598c0,0.848,0.103,1.484,0.308,1.91
				c0.205,0.427,0.526,0.64,0.964,0.64c0.879,0,1.319-0.851,1.319-2.55c0-0.838-0.113-1.469-0.338-1.891
				c-0.226-0.421-0.553-0.632-0.981-0.632c-0.438,0-0.759,0.211-0.964,0.632C70.403,222.129,70.301,222.76,70.301,223.598z
				 M77.608,220.617l-5.544,9.994h-0.656l5.544-9.994H77.608z M79.386,227.617c0,1.029-0.168,1.813-0.506,2.348
				c-0.337,0.536-0.827,0.804-1.47,0.804c-0.62,0-1.101-0.276-1.442-0.831c-0.342-0.553-0.513-1.326-0.513-2.32
				c0-1.025,0.167-1.803,0.502-2.331s0.819-0.793,1.453-0.793c0.625,0,1.11,0.273,1.456,0.82S79.386,226.629,79.386,227.617z
				 M76.125,227.617c0,0.844,0.103,1.476,0.308,1.896c0.205,0.422,0.526,0.633,0.964,0.633c0.879,0,1.319-0.844,1.319-2.529
				c0-1.682-0.44-2.522-1.319-2.522c-0.438,0-0.759,0.208-0.964,0.626C76.228,226.137,76.125,226.77,76.125,227.617z"/>
		</g>
	</g>
	<g>
		<g>
			<path class="st2" d="M59.958,279.265c0,1.313-0.172,2.411-0.516,3.295s-0.845,1.538-1.504,1.962s-1.455,0.636-2.389,0.636
				c-0.474,0-0.912-0.06-1.313-0.178v-0.588c0.196,0.063,0.432,0.112,0.708,0.147c0.276,0.033,0.486,0.051,0.632,0.051
				c1.125,0,2.007-0.406,2.646-1.221c0.638-0.813,0.994-1.999,1.066-3.558h-0.082c-0.333,0.438-0.729,0.773-1.189,1.009
				c-0.46,0.234-0.941,0.352-1.442,0.352c-0.925,0-1.646-0.256-2.164-0.766s-0.776-1.234-0.776-2.174
				c0-1.002,0.284-1.814,0.851-2.434s1.305-0.93,2.211-0.93c0.656,0,1.23,0.172,1.723,0.516c0.492,0.345,0.872,0.85,1.138,1.515
				S59.958,278.354,59.958,279.265z M56.697,275.471c-0.72,0-1.294,0.242-1.723,0.729c-0.428,0.484-0.643,1.148-0.643,1.992
				c0,0.793,0.198,1.395,0.595,1.805s0.964,0.615,1.702,0.615c0.46,0,0.89-0.103,1.289-0.308s0.715-0.478,0.95-0.817
				c0.235-0.339,0.352-0.684,0.352-1.035c0-0.533-0.106-1.032-0.318-1.497s-0.508-0.828-0.889-1.091
				C57.633,275.602,57.194,275.471,56.697,275.471z"/>
			<path class="st2" d="M68.079,279.996c0,1.754-0.268,3.053-0.803,3.896s-1.346,1.265-2.43,1.265c-1.043,0-1.836-0.435-2.379-1.302
				c-0.542-0.869-0.813-2.154-0.813-3.859c0-1.74,0.263-3.031,0.79-3.869s1.327-1.258,2.403-1.258c1.053,0,1.855,0.434,2.406,1.303
				C67.803,277.039,68.079,278.314,68.079,279.996z M62.392,279.996c0,1.549,0.203,2.694,0.608,3.436
				c0.406,0.74,1.021,1.11,1.846,1.11c0.861,0,1.489-0.383,1.883-1.148s0.591-1.897,0.591-3.397c0-1.477-0.197-2.598-0.591-3.363
				s-1.022-1.148-1.883-1.148s-1.486,0.383-1.873,1.148S62.392,278.52,62.392,279.996z"/>
			<path class="st2" d="M73.562,278.007c0,1.03-0.171,1.813-0.513,2.349c-0.342,0.535-0.834,0.803-1.477,0.803
				c-0.606,0-1.081-0.274-1.425-0.824c-0.344-0.549-0.516-1.324-0.516-2.327c0-1.017,0.164-1.791,0.492-2.324s0.811-0.8,1.449-0.8
				c0.633,0,1.124,0.274,1.47,0.824C73.388,276.256,73.562,277.022,73.562,278.007z M70.301,278.007
				c0,0.848,0.103,1.484,0.308,1.911c0.205,0.426,0.526,0.639,0.964,0.639c0.879,0,1.319-0.85,1.319-2.55
				c0-0.839-0.113-1.469-0.338-1.89c-0.226-0.422-0.553-0.633-0.981-0.633c-0.438,0-0.759,0.211-0.964,0.633
				C70.403,276.538,70.301,277.168,70.301,278.007z M77.608,275.026l-5.544,9.994h-0.656l5.544-9.994H77.608z M79.386,282.026
				c0,1.03-0.168,1.813-0.506,2.349c-0.337,0.535-0.827,0.803-1.47,0.803c-0.62,0-1.101-0.277-1.442-0.83
				c-0.342-0.555-0.513-1.328-0.513-2.321c0-1.025,0.167-1.802,0.502-2.331s0.819-0.793,1.453-0.793c0.625,0,1.11,0.273,1.456,0.82
				S79.386,281.037,79.386,282.026z M76.125,282.026c0,0.843,0.103,1.476,0.308,1.897c0.205,0.421,0.526,0.632,0.964,0.632
				c0.879,0,1.319-0.843,1.319-2.529c0-1.682-0.44-2.522-1.319-2.522c-0.438,0-0.759,0.209-0.964,0.625
				C76.228,280.547,76.125,281.179,76.125,282.026z"/>
		</g>
	</g>
	<g>
		<g>
			<path class="st2" d="M121.286,13.508c-1.253,0-2.24,0.401-2.96,1.203s-1.08,1.9-1.08,3.295c0,1.426,0.339,2.534,1.019,3.322
				s1.65,1.183,2.912,1.183c0.838,0,1.609-0.107,2.311-0.321v0.615c-0.661,0.232-1.486,0.349-2.475,0.349
				c-1.404,0-2.509-0.454-3.315-1.36s-1.21-2.174-1.21-3.801c0-1.016,0.192-1.912,0.578-2.687s0.939-1.373,1.661-1.794
				s1.562-0.632,2.519-0.632c0.975,0,1.848,0.182,2.618,0.547l-0.28,0.629C122.854,13.69,122.088,13.508,121.286,13.508z"/>
			<path class="st2" d="M130.261,16.174h-2.475v6.843h-0.67v-6.843h-2.536v-0.588h5.681V16.174z"/>
			<path class="st2" d="M136.297,23.017l-0.171-1.176h-0.055c-0.374,0.479-0.758,0.817-1.152,1.015s-0.86,0.297-1.398,0.297
				c-0.729,0-1.296-0.187-1.702-0.561s-0.608-0.891-0.608-1.552c0-0.725,0.302-1.288,0.906-1.688s1.478-0.613,2.622-0.636
				l1.415-0.041v-0.492c0-0.707-0.144-1.24-0.431-1.6s-0.75-0.54-1.388-0.54c-0.688,0-1.401,0.191-2.14,0.574l-0.253-0.588
				c0.816-0.383,1.623-0.574,2.42-0.574c0.816,0,1.425,0.212,1.829,0.636s0.605,1.084,0.605,1.982v4.942H136.297z M133.563,22.538
				c0.793,0,1.418-0.227,1.876-0.68s0.687-1.083,0.687-1.89v-0.731l-1.299,0.055c-1.043,0.05-1.788,0.213-2.232,0.489
				s-0.667,0.705-0.667,1.289c0,0.465,0.143,0.826,0.427,1.083S133.043,22.538,133.563,22.538z"/>
			<path class="st2" d="M142.381,23.153c-1.144,0-1.978-0.428-2.502-1.285h-0.048l0.021,0.574c0.018,0.337,0.027,0.707,0.027,1.107
				v2.83h-0.677V15.586h0.574l0.13,1.06h0.041c0.51-0.802,1.326-1.203,2.447-1.203c1.002,0,1.767,0.329,2.293,0.988
				s0.79,1.617,0.79,2.875c0,1.221-0.277,2.168-0.831,2.84S143.338,23.153,142.381,23.153z M142.368,22.552
				c0.761,0,1.35-0.283,1.767-0.848s0.625-1.356,0.625-2.372c0-2.183-0.789-3.274-2.365-3.274c-0.866,0-1.501,0.238-1.907,0.714
				s-0.608,1.252-0.608,2.328v0.219c0,1.162,0.195,1.992,0.584,2.488S141.488,22.552,142.368,22.552z"/>
			<path class="st2" d="M152.116,16.174h-2.475v6.843h-0.67v-6.843h-2.536v-0.588h5.681V16.174z"/>
			<path class="st2" d="M109.562,39.816h-0.677v-7.431h5.927v7.431h-0.677v-6.788h-4.573V39.816z"/>
			<path class="st2" d="M120.479,39.953c-1.144,0-1.978-0.428-2.502-1.285h-0.048l0.021,0.574c0.018,0.337,0.027,0.707,0.027,1.107
				v2.83H117.3V32.386h0.574l0.13,1.06h0.041c0.51-0.802,1.326-1.203,2.447-1.203c1.002,0,1.767,0.329,2.293,0.988
				s0.79,1.617,0.79,2.875c0,1.221-0.277,2.168-0.831,2.84S121.436,39.953,120.479,39.953z M120.465,39.352
				c0.761,0,1.35-0.283,1.767-0.848s0.625-1.356,0.625-2.372c0-2.183-0.789-3.274-2.365-3.274c-0.866,0-1.501,0.238-1.907,0.714
				s-0.608,1.252-0.608,2.328v0.219c0,1.162,0.195,1.992,0.584,2.488S119.586,39.352,120.465,39.352z"/>
			<path class="st2" d="M131.779,36.091c0,1.212-0.294,2.159-0.882,2.84s-1.399,1.022-2.434,1.022c-0.652,0-1.226-0.157-1.723-0.472
				s-0.877-0.766-1.142-1.354s-0.396-1.267-0.396-2.037c0-1.212,0.294-2.157,0.882-2.833s1.395-1.015,2.42-1.015
				c1.021,0,1.822,0.343,2.403,1.029S131.779,34.897,131.779,36.091z M125.914,36.091c0,1.021,0.225,1.817,0.673,2.389
				s1.083,0.858,1.904,0.858s1.455-0.286,1.904-0.858s0.673-1.368,0.673-2.389c0-1.025-0.227-1.821-0.68-2.386
				s-1.09-0.848-1.911-0.848s-1.453,0.281-1.897,0.844S125.914,35.061,125.914,36.091z"/>
			<path class="st2" d="M136.837,39.953c-1.08,0-1.922-0.333-2.526-0.998s-0.906-1.597-0.906-2.796c0-1.185,0.292-2.134,0.875-2.847
				s1.37-1.07,2.358-1.07c0.875,0,1.565,0.305,2.071,0.916s0.759,1.44,0.759,2.488v0.547h-5.353c0.009,1.021,0.247,1.8,0.714,2.338
				s1.136,0.807,2.006,0.807c0.424,0,0.796-0.03,1.118-0.089s0.728-0.187,1.22-0.383v0.615c-0.419,0.182-0.807,0.307-1.162,0.373
				S137.266,39.953,136.837,39.953z M136.639,32.844c-0.715,0-1.29,0.236-1.723,0.708s-0.686,1.152-0.759,2.041h4.594
				c0-0.861-0.187-1.535-0.561-2.02S137.3,32.844,136.639,32.844z"/>
			<path class="st2" d="M145.553,32.386h0.841l-3.329,3.596l3.568,3.835h-0.909l-3.514-3.767v3.767h-0.69v-7.431h0.69v3.609
				L145.553,32.386z"/>
			<path class="st2" d="M152.663,32.974h-2.475v6.843h-0.67v-6.843h-2.536v-0.588h5.681V32.974z"/>
			<path class="st2" d="M158.699,39.816l-0.171-1.176h-0.055c-0.374,0.479-0.758,0.817-1.152,1.015s-0.86,0.297-1.398,0.297
				c-0.729,0-1.296-0.187-1.702-0.561s-0.608-0.891-0.608-1.552c0-0.725,0.302-1.288,0.906-1.688s1.478-0.613,2.622-0.636
				l1.415-0.041v-0.492c0-0.707-0.144-1.24-0.431-1.6s-0.75-0.54-1.388-0.54c-0.688,0-1.401,0.191-2.14,0.574l-0.253-0.588
				c0.816-0.383,1.623-0.574,2.42-0.574c0.816,0,1.425,0.212,1.829,0.636s0.605,1.084,0.605,1.982v4.942H158.699z M155.964,39.338
				c0.793,0,1.418-0.227,1.876-0.68s0.687-1.083,0.687-1.89v-0.731l-1.299,0.055c-1.043,0.05-1.788,0.213-2.232,0.489
				s-0.667,0.705-0.667,1.289c0,0.465,0.143,0.826,0.427,1.083S155.445,39.338,155.964,39.338z"/>
		</g>
	</g>
	<g>
		<g>
			<path d="M77.317,344.692c0,1.859-0.465,3.305-1.395,4.336s-2.246,1.547-3.949,1.547c-1.724,0-3.048-0.512-3.973-1.535
				c-0.925-1.023-1.387-2.478-1.387-4.363s0.465-3.333,1.395-4.344s2.256-1.516,3.98-1.516c1.698,0,3.01,0.513,3.938,1.539
				C76.853,341.383,77.317,342.828,77.317,344.692z M68.598,344.692c0,1.406,0.284,2.473,0.852,3.199
				c0.567,0.727,1.409,1.09,2.523,1.09c1.109,0,1.946-0.359,2.512-1.078c0.565-0.719,0.848-1.789,0.848-3.211
				c0-1.401-0.28-2.464-0.84-3.188c-0.56-0.724-1.395-1.086-2.504-1.086c-1.12,0-1.965,0.362-2.535,1.086
				S68.598,343.291,68.598,344.692z"/>
			<path d="M87.129,341.778v8.641h-1.844v-7.188h-3.875v7.188h-1.836v-8.641H87.129z"/>
			<path d="M96.247,341.778v1.438h-2.813v7.203H91.59v-7.203h-2.813v-1.438H96.247z"/>
			<path d="M105.418,346.083c0,1.411-0.362,2.513-1.086,3.305c-0.724,0.792-1.732,1.188-3.023,1.188
				c-0.808,0-1.521-0.183-2.141-0.547c-0.62-0.364-1.097-0.888-1.43-1.57c-0.333-0.683-0.5-1.474-0.5-2.375
				c0-1.401,0.359-2.495,1.078-3.281s1.731-1.18,3.039-1.18c1.25,0,2.239,0.402,2.969,1.207
				C105.054,343.634,105.418,344.719,105.418,346.083z M99.129,346.083c0,1.995,0.737,2.992,2.211,2.992
				c1.458,0,2.188-0.997,2.188-2.992c0-1.974-0.734-2.961-2.203-2.961c-0.771,0-1.33,0.255-1.676,0.766
				C99.302,344.398,99.129,345.13,99.129,346.083z"/>
			<path d="M115.028,343.989c0,1.021-0.597,1.638-1.789,1.852v0.063c0.667,0.078,1.177,0.289,1.531,0.633
				c0.354,0.344,0.531,0.789,0.531,1.336c0,0.817-0.312,1.446-0.934,1.887c-0.623,0.44-1.527,0.66-2.715,0.66h-4.125v-8.641h4.109
				C113.897,341.778,115.028,342.516,115.028,343.989z M113.192,344.146c0-0.344-0.134-0.593-0.402-0.746
				c-0.269-0.153-0.668-0.23-1.199-0.23h-2.227v2.078h1.953c0.614,0,1.081-0.079,1.398-0.238
				C113.033,344.85,113.192,344.563,113.192,344.146z M113.418,347.763c0-0.417-0.162-0.712-0.484-0.887
				c-0.323-0.175-0.808-0.262-1.453-0.262h-2.117v2.445h2.164C112.788,349.06,113.418,348.627,113.418,347.763z"/>
			<path d="M122.598,350.419l-0.367-1.203h-0.063c-0.417,0.526-0.836,0.884-1.258,1.074s-0.964,0.285-1.625,0.285
				c-0.849,0-1.512-0.229-1.988-0.688s-0.715-1.106-0.715-1.945c0-0.891,0.331-1.563,0.992-2.016c0.661-0.453,1.669-0.7,3.023-0.742
				l1.492-0.047v-0.461c0-0.552-0.129-0.965-0.387-1.238s-0.658-0.41-1.199-0.41c-0.443,0-0.867,0.065-1.273,0.195
				s-0.797,0.284-1.172,0.461l-0.594-1.313c0.469-0.245,0.981-0.431,1.539-0.559c0.557-0.128,1.083-0.191,1.578-0.191
				c1.099,0,1.928,0.239,2.488,0.719c0.56,0.479,0.84,1.231,0.84,2.258v5.82H122.598z M119.864,349.169
				c0.667,0,1.202-0.187,1.605-0.559c0.403-0.372,0.605-0.895,0.605-1.566v-0.75l-1.109,0.047c-0.865,0.031-1.494,0.176-1.887,0.434
				c-0.394,0.258-0.59,0.652-0.59,1.184c0,0.386,0.114,0.684,0.344,0.895C119.062,349.063,119.405,349.169,119.864,349.169z"/>
			<path d="M127.356,350.419h-2.055l2.406-3.539c-0.583-0.167-1.042-0.465-1.375-0.895c-0.333-0.43-0.5-0.962-0.5-1.598
				c0-0.817,0.292-1.457,0.875-1.918c0.583-0.461,1.38-0.691,2.391-0.691h3.938v8.641h-1.844v-3.328h-1.742L127.356,350.419z
				 M127.622,344.403c0,0.442,0.168,0.774,0.504,0.996s0.788,0.332,1.355,0.332h1.711v-2.563h-2c-0.5,0-0.887,0.106-1.16,0.32
				S127.622,344.008,127.622,344.403z"/>
			<path d="M141.723,345.231c0.838,0,1.456-0.093,1.852-0.277c0.396-0.185,0.594-0.47,0.594-0.855c0-0.703-0.625-1.055-1.875-1.055
				c-0.833,0-1.685,0.188-2.555,0.563l-0.594-1.367c1.005-0.411,2.114-0.617,3.328-0.617c1.073,0,1.906,0.196,2.5,0.59
				s0.891,0.957,0.891,1.691c0,0.969-0.555,1.604-1.664,1.906v0.063c0.692,0.188,1.188,0.456,1.488,0.805
				c0.299,0.349,0.449,0.781,0.449,1.297c0,0.792-0.348,1.423-1.043,1.895s-1.666,0.707-2.91,0.707c-1.359,0-2.398-0.18-3.117-0.539
				v-1.586c0.953,0.448,1.94,0.672,2.961,0.672c0.734,0,1.301-0.103,1.699-0.309s0.598-0.52,0.598-0.941
				c0-0.433-0.201-0.75-0.602-0.953c-0.401-0.203-1.021-0.305-1.859-0.305h-1.055v-1.383H141.723z"/>
			<path d="M153.528,350.419l-0.367-1.203h-0.063c-0.417,0.526-0.836,0.884-1.258,1.074s-0.964,0.285-1.625,0.285
				c-0.849,0-1.512-0.229-1.988-0.688s-0.715-1.106-0.715-1.945c0-0.891,0.331-1.563,0.992-2.016c0.661-0.453,1.669-0.7,3.023-0.742
				l1.492-0.047v-0.461c0-0.552-0.129-0.965-0.387-1.238s-0.658-0.41-1.199-0.41c-0.443,0-0.867,0.065-1.273,0.195
				s-0.797,0.284-1.172,0.461l-0.594-1.313c0.469-0.245,0.981-0.431,1.539-0.559c0.557-0.128,1.083-0.191,1.578-0.191
				c1.099,0,1.928,0.239,2.488,0.719c0.56,0.479,0.84,1.231,0.84,2.258v5.82H153.528z M150.793,349.169
				c0.667,0,1.202-0.187,1.605-0.559c0.403-0.372,0.605-0.895,0.605-1.566v-0.75l-1.109,0.047c-0.865,0.031-1.494,0.176-1.887,0.434
				c-0.394,0.258-0.59,0.652-0.59,1.184c0,0.386,0.114,0.684,0.344,0.895C149.991,349.063,150.335,349.169,150.793,349.169z"/>
			<path d="M162.762,341.778h2.016l-3.57,4.164l3.875,4.477h-2.109l-3.734-4.383v4.383h-1.836v-8.641h1.836v4.195L162.762,341.778z"
				/>
			<path d="M165.192,341.778h2l1.758,4.898c0.266,0.698,0.442,1.354,0.531,1.969h0.063c0.047-0.286,0.133-0.634,0.258-1.043
				s0.786-2.351,1.984-5.824h1.984l-3.695,9.789c-0.672,1.797-1.792,2.695-3.359,2.695c-0.406,0-0.802-0.044-1.188-0.133v-1.453
				c0.276,0.063,0.591,0.094,0.945,0.094c0.885,0,1.508-0.513,1.867-1.539l0.32-0.813L165.192,341.778z"/>
			<path d="M182.637,341.778v8.641h-1.844v-7.188h-3.875v7.188h-1.836v-8.641H182.637z"/>
			<path d="M190.622,341.778h2.016l-3.57,4.164l3.875,4.477h-2.109l-3.734-4.383v4.383h-1.836v-8.641h1.836v4.195L190.622,341.778z"
				/>
			<path d="M199.77,350.419l-0.367-1.203h-0.063c-0.417,0.526-0.836,0.884-1.258,1.074s-0.964,0.285-1.625,0.285
				c-0.849,0-1.512-0.229-1.988-0.688s-0.715-1.106-0.715-1.945c0-0.891,0.331-1.563,0.992-2.016c0.661-0.453,1.669-0.7,3.023-0.742
				l1.492-0.047v-0.461c0-0.552-0.129-0.965-0.387-1.238s-0.658-0.41-1.199-0.41c-0.443,0-0.867,0.065-1.273,0.195
				s-0.797,0.284-1.172,0.461l-0.594-1.313c0.469-0.245,0.981-0.431,1.539-0.559c0.557-0.128,1.083-0.191,1.578-0.191
				c1.099,0,1.928,0.239,2.488,0.719c0.56,0.479,0.84,1.231,0.84,2.258v5.82H199.77z M197.036,349.169
				c0.667,0,1.202-0.187,1.605-0.559c0.403-0.372,0.605-0.895,0.605-1.566v-0.75l-1.109,0.047c-0.865,0.031-1.494,0.176-1.887,0.434
				c-0.394,0.258-0.59,0.652-0.59,1.184c0,0.386,0.114,0.684,0.344,0.895C196.233,349.063,196.577,349.169,197.036,349.169z"/>
			<path d="M88.778,371.575c-1.308,0-2.301-0.382-2.98-1.145s-1.02-1.858-1.02-3.285c0-1.453,0.355-2.57,1.066-3.352
				s1.738-1.172,3.082-1.172c0.911,0,1.731,0.169,2.461,0.508l-0.555,1.477c-0.776-0.302-1.417-0.453-1.922-0.453
				c-1.495,0-2.242,0.992-2.242,2.977c0,0.969,0.186,1.696,0.559,2.184c0.372,0.487,0.918,0.73,1.637,0.73
				c0.817,0,1.591-0.203,2.32-0.609v1.602c-0.328,0.192-0.679,0.331-1.051,0.414C89.761,371.533,89.309,371.575,88.778,371.575z"/>
			<path d="M105.661,374.474h-1.711v-3.055h-5.922v3.055h-1.695v-4.477h0.703c0.614-0.88,1.103-1.944,1.465-3.191
				c0.362-1.247,0.577-2.59,0.645-4.027h5.25v7.219h1.266V374.474z M102.59,369.997v-5.813h-1.859
				c-0.099,1.073-0.306,2.13-0.621,3.172c-0.315,1.042-0.699,1.922-1.152,2.641H102.59z"/>
			<path d="M109.02,362.778v4.43c0,0.516-0.042,1.273-0.125,2.273l4.336-6.703h2.242v8.641h-1.766v-4.352
				c0-0.239,0.014-0.628,0.043-1.164c0.028-0.536,0.053-0.927,0.074-1.172l-4.32,6.688h-2.242v-8.641H109.02z"/>
			<path d="M121.575,371.575c-1.308,0-2.301-0.382-2.98-1.145s-1.02-1.858-1.02-3.285c0-1.453,0.355-2.57,1.066-3.352
				s1.738-1.172,3.082-1.172c0.911,0,1.731,0.169,2.461,0.508l-0.555,1.477c-0.776-0.302-1.417-0.453-1.922-0.453
				c-1.495,0-2.242,0.992-2.242,2.977c0,0.969,0.186,1.696,0.559,2.184c0.372,0.487,0.918,0.73,1.637,0.73
				c0.817,0,1.591-0.203,2.32-0.609v1.602c-0.328,0.192-0.679,0.331-1.051,0.414C122.558,371.533,122.106,371.575,121.575,371.575z"
				/>
			<path d="M131.372,362.778h2.016l-3.57,4.164l3.875,4.477h-2.109l-3.734-4.383v4.383h-1.836v-8.641h1.836v4.195L131.372,362.778z"
				/>
			<path d="M142.458,367.083c0,1.411-0.362,2.513-1.086,3.305c-0.724,0.792-1.732,1.188-3.023,1.188
				c-0.808,0-1.521-0.183-2.141-0.547c-0.62-0.364-1.097-0.888-1.43-1.57c-0.333-0.683-0.5-1.474-0.5-2.375
				c0-1.401,0.359-2.495,1.078-3.281s1.731-1.18,3.039-1.18c1.25,0,2.239,0.402,2.969,1.207
				C142.093,364.634,142.458,365.719,142.458,367.083z M136.168,367.083c0,1.995,0.737,2.992,2.211,2.992
				c1.458,0,2.188-0.997,2.188-2.992c0-1.974-0.734-2.961-2.203-2.961c-0.771,0-1.33,0.255-1.676,0.766
				C136.341,365.398,136.168,366.13,136.168,367.083z"/>
			<path d="M146.403,362.778v3.469h4.07v-3.469h1.836v8.641h-1.836v-3.727h-4.07v3.727h-1.836v-8.641H146.403z"/>
			<path d="M161.426,362.778v1.438h-2.813v7.203h-1.844v-7.203h-2.813v-1.438H161.426z"/>
			<path d="M170.598,367.083c0,1.411-0.362,2.513-1.086,3.305c-0.724,0.792-1.732,1.188-3.023,1.188
				c-0.808,0-1.521-0.183-2.141-0.547c-0.62-0.364-1.097-0.888-1.43-1.57c-0.333-0.683-0.5-1.474-0.5-2.375
				c0-1.401,0.359-2.495,1.078-3.281s1.731-1.18,3.039-1.18c1.25,0,2.239,0.402,2.969,1.207
				C170.233,364.634,170.598,365.719,170.598,367.083z M164.309,367.083c0,1.995,0.737,2.992,2.211,2.992
				c1.458,0,2.188-0.997,2.188-2.992c0-1.974-0.734-2.961-2.203-2.961c-0.771,0-1.33,0.255-1.676,0.766
				C164.482,365.398,164.309,366.13,164.309,367.083z"/>
			<path d="M177.668,369.661l0.102-0.375c0.213-0.776,0.398-1.372,0.555-1.789l1.938-4.719h2.445v8.641h-1.695v-6.977l-0.141,0.469
				c-0.234,0.839-0.433,1.456-0.594,1.852l-1.891,4.656h-1.391l-1.891-4.688c-0.261-0.677-0.5-1.44-0.719-2.289v6.977h-1.68v-8.641
				h2.43l1.875,4.578C177.179,367.778,177.397,368.547,177.668,369.661z"/>
		</g>
	</g>
	<g>
		<g>
			<path d="M309.844,350.575v-1.758h-0.258c-0.933,0-1.751-0.171-2.457-0.512c-0.706-0.341-1.259-0.853-1.66-1.535
				c-0.401-0.683-0.602-1.44-0.602-2.273c0-0.808,0.182-1.535,0.547-2.184c0.364-0.648,0.888-1.156,1.57-1.523
				c0.682-0.367,1.481-0.551,2.398-0.551h0.461v-1.406h1.766v1.406h0.477c0.922,0,1.723,0.183,2.402,0.547s1.198,0.868,1.555,1.512
				c0.356,0.644,0.535,1.376,0.535,2.199c0,0.849-0.201,1.612-0.602,2.289c-0.401,0.677-0.952,1.185-1.652,1.523
				c-0.701,0.339-1.522,0.508-2.465,0.508h-0.25v1.758H309.844z M309.844,341.763h-0.383c-0.865,0-1.542,0.246-2.031,0.738
				c-0.49,0.492-0.734,1.152-0.734,1.98c0,0.886,0.263,1.582,0.789,2.09c0.526,0.508,1.266,0.762,2.219,0.762h0.141V341.763z
				 M311.609,347.333h0.156c0.938,0,1.67-0.251,2.199-0.754c0.528-0.503,0.793-1.202,0.793-2.098c0-0.833-0.246-1.495-0.738-1.984
				s-1.168-0.734-2.027-0.734h-0.383V347.333z"/>
			<path d="M317.367,341.778h2l1.758,4.898c0.266,0.698,0.442,1.354,0.531,1.969h0.063c0.047-0.286,0.133-0.634,0.258-1.043
				s0.786-2.351,1.984-5.824h1.984l-3.695,9.789c-0.672,1.797-1.792,2.695-3.359,2.695c-0.406,0-0.802-0.044-1.188-0.133v-1.453
				c0.276,0.063,0.591,0.094,0.945,0.094c0.885,0,1.508-0.513,1.867-1.539l0.32-0.813L317.367,341.778z"/>
			<path d="M329.094,341.778v3.469h4.07v-3.469H335v8.641h-1.836v-3.727h-4.07v3.727h-1.836v-8.641H329.094z"/>
			<path d="M345.914,353.474h-1.711v-3.055h-5.922v3.055h-1.695v-4.477h0.703c0.614-0.88,1.103-1.944,1.465-3.191
				c0.362-1.247,0.577-2.59,0.645-4.027h5.25v7.219h1.266V353.474z M342.844,348.997v-5.813h-1.859
				c-0.099,1.073-0.306,2.13-0.621,3.172c-0.315,1.042-0.699,1.922-1.152,2.641H342.844z"/>
			<path d="M352.922,350.419l-0.367-1.203h-0.063c-0.417,0.526-0.836,0.884-1.258,1.074s-0.964,0.285-1.625,0.285
				c-0.849,0-1.512-0.229-1.988-0.688s-0.715-1.106-0.715-1.945c0-0.891,0.331-1.563,0.992-2.016c0.661-0.453,1.669-0.7,3.023-0.742
				l1.492-0.047v-0.461c0-0.552-0.129-0.965-0.387-1.238s-0.658-0.41-1.199-0.41c-0.443,0-0.867,0.065-1.273,0.195
				s-0.797,0.284-1.172,0.461l-0.594-1.313c0.469-0.245,0.981-0.431,1.539-0.559c0.557-0.128,1.083-0.191,1.578-0.191
				c1.099,0,1.928,0.239,2.488,0.719c0.56,0.479,0.84,1.231,0.84,2.258v5.82H352.922z M350.188,349.169
				c0.667,0,1.202-0.187,1.605-0.559c0.403-0.372,0.605-0.895,0.605-1.566v-0.75l-1.109,0.047c-0.865,0.031-1.494,0.176-1.887,0.434
				c-0.394,0.258-0.59,0.652-0.59,1.184c0,0.386,0.114,0.684,0.344,0.895C349.385,349.063,349.729,349.169,350.188,349.169z"/>
			<path d="M361.758,348.661l0.102-0.375c0.213-0.776,0.398-1.372,0.555-1.789l1.938-4.719h2.445v8.641h-1.695v-6.977l-0.141,0.469
				c-0.234,0.839-0.433,1.456-0.594,1.852l-1.891,4.656h-1.391l-1.891-4.688c-0.261-0.677-0.5-1.44-0.719-2.289v6.977h-1.68v-8.641
				h2.43l1.875,4.578C361.268,346.778,361.487,347.547,361.758,348.661z"/>
			<path d="M373.195,350.575c-1.344,0-2.395-0.392-3.152-1.176s-1.137-1.863-1.137-3.238c0-1.411,0.352-2.521,1.055-3.328
				s1.669-1.211,2.898-1.211c1.141,0,2.042,0.347,2.703,1.039c0.661,0.692,0.992,1.646,0.992,2.859v0.992h-5.758
				c0.026,0.839,0.252,1.483,0.68,1.934c0.427,0.45,1.028,0.676,1.805,0.676c0.51,0,0.985-0.048,1.426-0.145
				c0.44-0.097,0.913-0.257,1.418-0.48v1.492c-0.448,0.214-0.901,0.364-1.359,0.453
				C374.307,350.531,373.784,350.575,373.195,350.575z M372.859,343.013c-0.583,0-1.051,0.185-1.402,0.555s-0.562,0.909-0.629,1.617
				h3.922c-0.011-0.714-0.183-1.254-0.516-1.621C373.901,343.196,373.442,343.013,372.859,343.013z"/>
			<path d="M380.477,341.778v3.469h4.07v-3.469h1.836v8.641h-1.836v-3.727h-4.07v3.727h-1.836v-8.641H380.477z"/>
			<path d="M395.5,341.778v1.438h-2.813v7.203h-1.844v-7.203h-2.813v-1.438H395.5z"/>
			<path d="M399,341.778v3.469h4.07v-3.469h1.836v8.641h-1.836v-3.727H399v3.727h-1.836v-8.641H399z"/>
			<path d="M409.367,345.231h1.75c1.208,0,2.102,0.208,2.68,0.625s0.867,1.042,0.867,1.875c0,0.891-0.301,1.562-0.902,2.012
				s-1.483,0.676-2.645,0.676h-3.586v-8.641h1.836V345.231z M412.844,347.778c0-0.433-0.16-0.734-0.48-0.906
				s-0.78-0.258-1.379-0.258h-1.617v2.445h1.383c0.739,0,1.273-0.104,1.602-0.313S412.844,348.216,412.844,347.778z
				 M417.867,350.419h-1.844v-8.641h1.844V350.419z"/>
			<path d="M424.266,350.575c-1.344,0-2.395-0.392-3.152-1.176s-1.137-1.863-1.137-3.238c0-1.411,0.352-2.521,1.055-3.328
				s1.669-1.211,2.898-1.211c1.141,0,2.042,0.347,2.703,1.039c0.661,0.692,0.992,1.646,0.992,2.859v0.992h-5.758
				c0.026,0.839,0.252,1.483,0.68,1.934c0.427,0.45,1.028,0.676,1.805,0.676c0.51,0,0.985-0.048,1.426-0.145
				c0.44-0.097,0.913-0.257,1.418-0.48v1.492c-0.448,0.214-0.901,0.364-1.359,0.453
				C425.377,350.531,424.854,350.575,424.266,350.575z M423.93,343.013c-0.583,0-1.051,0.185-1.402,0.555s-0.562,0.909-0.629,1.617
				h3.922c-0.011-0.714-0.183-1.254-0.516-1.621C424.971,343.196,424.513,343.013,423.93,343.013z"/>
			<path d="M342.082,371.575c-1.094,0-1.943-0.394-2.547-1.18h-0.109c0.073,0.729,0.109,1.172,0.109,1.328v3.539h-1.836v-12.484
				h1.484c0.042,0.161,0.127,0.547,0.258,1.156h0.094c0.573-0.875,1.432-1.313,2.578-1.313c1.078,0,1.918,0.391,2.52,1.172
				s0.902,1.878,0.902,3.289s-0.306,2.513-0.918,3.305C344.005,371.18,343.16,371.575,342.082,371.575z M341.637,364.122
				c-0.729,0-1.262,0.214-1.598,0.641s-0.504,1.109-0.504,2.047v0.273c0,1.052,0.167,1.813,0.5,2.285
				c0.333,0.472,0.877,0.707,1.633,0.707c0.635,0,1.125-0.261,1.469-0.781s0.516-1.263,0.516-2.227c0-0.969-0.171-1.702-0.512-2.199
				C342.799,364.371,342.298,364.122,341.637,364.122z"/>
			<path d="M353.074,371.419l-0.367-1.203h-0.063c-0.417,0.526-0.836,0.884-1.258,1.074s-0.964,0.285-1.625,0.285
				c-0.849,0-1.512-0.229-1.988-0.688s-0.715-1.106-0.715-1.945c0-0.891,0.331-1.563,0.992-2.016c0.661-0.453,1.669-0.7,3.023-0.742
				l1.492-0.047v-0.461c0-0.552-0.129-0.965-0.387-1.238s-0.658-0.41-1.199-0.41c-0.443,0-0.867,0.065-1.273,0.195
				s-0.797,0.284-1.172,0.461l-0.594-1.313c0.469-0.245,0.981-0.431,1.539-0.559c0.557-0.128,1.083-0.191,1.578-0.191
				c1.099,0,1.928,0.239,2.488,0.719c0.56,0.479,0.84,1.231,0.84,2.258v5.82H353.074z M350.34,370.169
				c0.667,0,1.202-0.187,1.605-0.559c0.403-0.372,0.605-0.895,0.605-1.566v-0.75l-1.109,0.047c-0.865,0.031-1.494,0.176-1.887,0.434
				c-0.394,0.258-0.59,0.652-0.59,1.184c0,0.386,0.114,0.684,0.344,0.895C349.538,370.063,349.881,370.169,350.34,370.169z"/>
			<path d="M356.449,366.231c0-1.927,0.327-3.409,0.98-4.445c0.653-1.036,1.694-1.703,3.121-2c1.078-0.219,2.32-0.433,3.727-0.641
				l0.258,1.617c-1.708,0.261-2.958,0.464-3.75,0.609c-0.818,0.151-1.408,0.487-1.77,1.008c-0.362,0.521-0.572,1.305-0.629,2.352
				h0.117c0.297-0.433,0.685-0.767,1.164-1.004c0.479-0.237,0.992-0.355,1.539-0.355c1.063,0,1.891,0.336,2.484,1.008
				s0.891,1.614,0.891,2.828c0,1.391-0.361,2.466-1.082,3.227c-0.722,0.761-1.72,1.141-2.996,1.141
				c-1.266,0-2.258-0.469-2.977-1.406S356.449,367.919,356.449,366.231z M360.629,370.075c1.364,0,2.047-0.896,2.047-2.688
				c0-1.729-0.617-2.594-1.852-2.594c-0.339,0-0.667,0.073-0.984,0.219c-0.318,0.146-0.611,0.339-0.879,0.578
				c-0.269,0.239-0.476,0.487-0.621,0.742c0,1.229,0.195,2.16,0.586,2.793S359.884,370.075,360.629,370.075z"/>
			<path d="M374.355,367.083c0,1.411-0.362,2.513-1.086,3.305c-0.724,0.792-1.732,1.188-3.023,1.188
				c-0.808,0-1.521-0.183-2.141-0.547c-0.62-0.364-1.097-0.888-1.43-1.57c-0.333-0.683-0.5-1.474-0.5-2.375
				c0-1.401,0.359-2.495,1.078-3.281s1.731-1.18,3.039-1.18c1.25,0,2.239,0.402,2.969,1.207
				C373.991,364.634,374.355,365.719,374.355,367.083z M368.066,367.083c0,1.995,0.737,2.992,2.211,2.992
				c1.458,0,2.188-0.997,2.188-2.992c0-1.974-0.734-2.961-2.203-2.961c-0.771,0-1.33,0.255-1.676,0.766
				C368.239,365.398,368.066,366.13,368.066,367.083z"/>
			<path d="M382.801,362.778v1.438h-2.813v7.203h-1.844v-7.203h-2.813v-1.438H382.801z"/>
			<path d="M386.301,366.231h1.75c1.208,0,2.102,0.208,2.68,0.625s0.867,1.042,0.867,1.875c0,0.891-0.301,1.562-0.902,2.012
				s-1.483,0.676-2.645,0.676h-3.586v-8.641h1.836V366.231z M389.777,368.778c0-0.433-0.16-0.734-0.48-0.906
				s-0.78-0.258-1.379-0.258h-1.617v2.445h1.383c0.739,0,1.273-0.104,1.602-0.313S389.777,369.216,389.777,368.778z
				 M394.801,371.419h-1.844v-8.641h1.844V371.419z"/>
		</g>
	</g>
	<g>
		<g>
			<path d="M551.484,338.997h3.391c1.573,0,2.709,0.229,3.41,0.688c0.7,0.458,1.051,1.183,1.051,2.172
				c0,0.667-0.172,1.222-0.516,1.664s-0.839,0.722-1.484,0.836v0.078c0.802,0.151,1.392,0.449,1.77,0.895
				c0.377,0.445,0.566,1.048,0.566,1.809c0,1.026-0.358,1.829-1.074,2.41c-0.716,0.581-1.712,0.871-2.988,0.871h-4.125V338.997z
				 M553.352,343.716h1.797c0.781,0,1.352-0.124,1.711-0.371s0.539-0.668,0.539-1.262c0-0.536-0.194-0.925-0.582-1.164
				c-0.388-0.239-1.004-0.359-1.848-0.359h-1.617V343.716z M553.352,345.231v3.617h1.984c0.781,0,1.371-0.149,1.77-0.449
				s0.598-0.772,0.598-1.418c0-0.594-0.203-1.034-0.609-1.32s-1.023-0.43-1.852-0.43H553.352z"/>
			<path d="M569.516,346.083c0,1.411-0.362,2.513-1.086,3.305c-0.724,0.792-1.732,1.188-3.023,1.188
				c-0.808,0-1.521-0.183-2.141-0.547c-0.62-0.364-1.097-0.888-1.43-1.57c-0.333-0.683-0.5-1.474-0.5-2.375
				c0-1.401,0.359-2.495,1.078-3.281s1.731-1.18,3.039-1.18c1.25,0,2.239,0.402,2.969,1.207
				C569.151,343.634,569.516,344.719,569.516,346.083z M563.227,346.083c0,1.995,0.737,2.992,2.211,2.992
				c1.458,0,2.188-0.997,2.188-2.992c0-1.974-0.734-2.961-2.203-2.961c-0.771,0-1.33,0.255-1.676,0.766
				C563.399,344.398,563.227,345.13,563.227,346.083z"/>
			<path d="M573.531,345.231c0.838,0,1.456-0.093,1.852-0.277c0.396-0.185,0.594-0.47,0.594-0.855c0-0.703-0.625-1.055-1.875-1.055
				c-0.833,0-1.685,0.188-2.555,0.563l-0.594-1.367c1.005-0.411,2.114-0.617,3.328-0.617c1.073,0,1.906,0.196,2.5,0.59
				s0.891,0.957,0.891,1.691c0,0.969-0.555,1.604-1.664,1.906v0.063c0.692,0.188,1.188,0.456,1.488,0.805
				c0.299,0.349,0.449,0.781,0.449,1.297c0,0.792-0.348,1.423-1.043,1.895s-1.666,0.707-2.91,0.707c-1.359,0-2.398-0.18-3.117-0.539
				v-1.586c0.953,0.448,1.94,0.672,2.961,0.672c0.734,0,1.301-0.103,1.699-0.309s0.598-0.52,0.598-0.941
				c0-0.433-0.201-0.75-0.602-0.953c-0.401-0.203-1.021-0.305-1.859-0.305h-1.055v-1.383H573.531z"/>
			<path d="M587.43,343.989c0,1.021-0.597,1.638-1.789,1.852v0.063c0.667,0.078,1.177,0.289,1.531,0.633
				c0.354,0.344,0.531,0.789,0.531,1.336c0,0.817-0.312,1.446-0.934,1.887c-0.623,0.44-1.527,0.66-2.715,0.66h-4.125v-8.641h4.109
				C586.299,341.778,587.43,342.516,587.43,343.989z M585.594,344.146c0-0.344-0.134-0.593-0.402-0.746
				c-0.269-0.153-0.668-0.23-1.199-0.23h-2.227v2.078h1.953c0.614,0,1.081-0.079,1.398-0.238
				C585.435,344.85,585.594,344.563,585.594,344.146z M585.82,347.763c0-0.417-0.162-0.712-0.484-0.887
				c-0.323-0.175-0.808-0.262-1.453-0.262h-2.117v2.445h2.164C585.19,349.06,585.82,348.627,585.82,347.763z"/>
			<path d="M593.367,350.575c-1.344,0-2.395-0.392-3.152-1.176s-1.137-1.863-1.137-3.238c0-1.411,0.352-2.521,1.055-3.328
				s1.669-1.211,2.898-1.211c1.141,0,2.042,0.347,2.703,1.039c0.661,0.692,0.992,1.646,0.992,2.859v0.992h-5.758
				c0.026,0.839,0.252,1.483,0.68,1.934c0.427,0.45,1.028,0.676,1.805,0.676c0.51,0,0.985-0.048,1.426-0.145
				c0.44-0.097,0.913-0.257,1.418-0.48v1.492c-0.448,0.214-0.901,0.364-1.359,0.453
				C594.479,350.531,593.956,350.575,593.367,350.575z M593.031,343.013c-0.583,0-1.051,0.185-1.402,0.555s-0.562,0.909-0.629,1.617
				h3.922c-0.011-0.714-0.183-1.254-0.516-1.621C594.073,343.196,593.614,343.013,593.031,343.013z"/>
			<path d="M607.102,353.474h-1.711v-3.055h-5.922v3.055h-1.695v-4.477h0.703c0.614-0.88,1.103-1.944,1.465-3.191
				s0.577-2.59,0.645-4.027h5.25v7.219h1.266V353.474z M604.031,348.997v-5.813h-1.859c-0.099,1.073-0.306,2.13-0.621,3.172
				s-0.699,1.922-1.152,2.641H604.031z"/>
			<path d="M612.477,350.575c-1.344,0-2.395-0.392-3.152-1.176s-1.137-1.863-1.137-3.238c0-1.411,0.352-2.521,1.055-3.328
				s1.669-1.211,2.898-1.211c1.141,0,2.042,0.347,2.703,1.039s0.992,1.646,0.992,2.859v0.992h-5.758
				c0.026,0.839,0.253,1.483,0.68,1.934s1.028,0.676,1.805,0.676c0.511,0,0.985-0.048,1.426-0.145s0.913-0.257,1.418-0.48v1.492
				c-0.448,0.214-0.901,0.364-1.359,0.453S613.065,350.575,612.477,350.575z M612.141,343.013c-0.583,0-1.051,0.185-1.402,0.555
				s-0.562,0.909-0.629,1.617h3.922c-0.011-0.714-0.183-1.254-0.516-1.621S612.724,343.013,612.141,343.013z"/>
			<path d="M619.758,341.778v3.469h4.07v-3.469h1.836v8.641h-1.836v-3.727h-4.07v3.727h-1.836v-8.641H619.758z"/>
			<path d="M630.047,341.778v4.43c0,0.516-0.042,1.273-0.125,2.273l4.336-6.703h2.242v8.641h-1.766v-4.352
				c0-0.239,0.015-0.628,0.043-1.164s0.054-0.927,0.074-1.172l-4.32,6.688h-2.242v-8.641H630.047z"/>
			<path d="M642.891,350.575c-1.344,0-2.395-0.392-3.152-1.176s-1.137-1.863-1.137-3.238c0-1.411,0.352-2.521,1.055-3.328
				s1.669-1.211,2.898-1.211c1.141,0,2.042,0.347,2.703,1.039s0.992,1.646,0.992,2.859v0.992h-5.758
				c0.026,0.839,0.253,1.483,0.68,1.934s1.028,0.676,1.805,0.676c0.511,0,0.985-0.048,1.426-0.145s0.913-0.257,1.418-0.48v1.492
				c-0.448,0.214-0.901,0.364-1.359,0.453S643.479,350.575,642.891,350.575z M642.555,343.013c-0.583,0-1.051,0.185-1.402,0.555
				s-0.562,0.909-0.629,1.617h3.922c-0.011-0.714-0.183-1.254-0.516-1.621S643.138,343.013,642.555,343.013z"/>
			<path d="M536.039,362.778v3.469h4.07v-3.469h1.836v8.641h-1.836v-3.727h-4.07v3.727h-1.836v-8.641H536.039z"/>
			<path d="M549.977,371.419l-0.367-1.203h-0.063c-0.417,0.526-0.836,0.884-1.258,1.074s-0.964,0.285-1.625,0.285
				c-0.849,0-1.512-0.229-1.988-0.688s-0.715-1.106-0.715-1.945c0-0.891,0.331-1.563,0.992-2.016c0.661-0.453,1.669-0.7,3.023-0.742
				l1.492-0.047v-0.461c0-0.552-0.129-0.965-0.387-1.238s-0.658-0.41-1.199-0.41c-0.443,0-0.867,0.065-1.273,0.195
				s-0.797,0.284-1.172,0.461l-0.594-1.313c0.469-0.245,0.981-0.431,1.539-0.559c0.557-0.128,1.083-0.191,1.578-0.191
				c1.099,0,1.928,0.239,2.488,0.719c0.56,0.479,0.84,1.231,0.84,2.258v5.82H549.977z M547.242,370.169
				c0.667,0,1.202-0.187,1.605-0.559c0.403-0.372,0.605-0.895,0.605-1.566v-0.75l-1.109,0.047c-0.865,0.031-1.494,0.176-1.887,0.434
				c-0.394,0.258-0.59,0.652-0.59,1.184c0,0.386,0.114,0.684,0.344,0.895C546.44,370.063,546.784,370.169,547.242,370.169z"/>
			<path d="M555.758,366.231c0.838,0,1.456-0.093,1.852-0.277c0.396-0.185,0.594-0.47,0.594-0.855c0-0.703-0.625-1.055-1.875-1.055
				c-0.833,0-1.685,0.188-2.555,0.563l-0.594-1.367c1.005-0.411,2.114-0.617,3.328-0.617c1.073,0,1.906,0.196,2.5,0.59
				s0.891,0.957,0.891,1.691c0,0.969-0.555,1.604-1.664,1.906v0.063c0.692,0.188,1.188,0.456,1.488,0.805
				c0.299,0.349,0.449,0.781,0.449,1.297c0,0.792-0.348,1.423-1.043,1.895s-1.666,0.707-2.91,0.707c-1.359,0-2.398-0.18-3.117-0.539
				v-1.586c0.953,0.448,1.94,0.672,2.961,0.672c0.734,0,1.301-0.103,1.699-0.309s0.598-0.52,0.598-0.941
				c0-0.433-0.201-0.75-0.602-0.953c-0.401-0.203-1.021-0.305-1.859-0.305h-1.055v-1.383H555.758z"/>
			<path d="M565.93,371.575c-1.344,0-2.395-0.392-3.152-1.176s-1.137-1.863-1.137-3.238c0-1.411,0.352-2.521,1.055-3.328
				s1.669-1.211,2.898-1.211c1.141,0,2.042,0.347,2.703,1.039c0.661,0.692,0.992,1.646,0.992,2.859v0.992h-5.758
				c0.026,0.839,0.252,1.483,0.68,1.934c0.427,0.45,1.028,0.676,1.805,0.676c0.51,0,0.985-0.048,1.426-0.145
				c0.44-0.097,0.913-0.257,1.418-0.48v1.492c-0.448,0.214-0.901,0.364-1.359,0.453C567.042,371.531,566.518,371.575,565.93,371.575
				z M565.594,364.013c-0.583,0-1.051,0.185-1.402,0.555s-0.562,0.909-0.629,1.617h3.922c-0.011-0.714-0.183-1.254-0.516-1.621
				C566.635,364.196,566.177,364.013,565.594,364.013z"/>
			<path d="M576.336,369.661l0.102-0.375c0.213-0.776,0.398-1.372,0.555-1.789l1.938-4.719h2.445v8.641h-1.695v-6.977l-0.141,0.469
				c-0.234,0.839-0.433,1.456-0.594,1.852l-1.891,4.656h-1.391l-1.891-4.688c-0.261-0.677-0.5-1.44-0.719-2.289v6.977h-1.68v-8.641
				h2.43l1.875,4.578C575.846,367.778,576.065,368.547,576.336,369.661z"/>
			<path d="M585.836,362.778v3.469h4.07v-3.469h1.836v8.641h-1.836v-3.727h-4.07v3.727H584v-8.641H585.836z"/>
			<path d="M602.031,367.083c0,1.411-0.362,2.513-1.086,3.305s-1.732,1.188-3.023,1.188c-0.808,0-1.521-0.183-2.141-0.547
				c-0.62-0.364-1.097-0.888-1.43-1.57c-0.333-0.683-0.5-1.474-0.5-2.375c0-1.401,0.359-2.495,1.078-3.281s1.731-1.18,3.039-1.18
				c1.25,0,2.239,0.402,2.969,1.207S602.031,365.719,602.031,367.083z M595.742,367.083c0,1.995,0.737,2.992,2.211,2.992
				c1.458,0,2.188-0.997,2.188-2.992c0-1.974-0.734-2.961-2.203-2.961c-0.771,0-1.33,0.255-1.676,0.766
				C595.915,365.398,595.742,366.13,595.742,367.083z"/>
			<path d="M605.898,362.778v4.43c0,0.516-0.042,1.273-0.125,2.273l4.336-6.703h2.242v8.641h-1.766v-4.352
				c0-0.239,0.015-0.628,0.043-1.164s0.054-0.927,0.074-1.172l-4.32,6.688h-2.242v-8.641H605.898z M608.188,361.724
				c-1.104,0-1.913-0.199-2.426-0.598s-0.798-1.063-0.855-1.996h1.664c0.031,0.375,0.103,0.667,0.215,0.875s0.273,0.358,0.484,0.449
				s0.532,0.137,0.965,0.137c0.511,0,0.898-0.113,1.164-0.34s0.427-0.601,0.484-1.121h1.695c-0.078,0.896-0.394,1.552-0.945,1.969
				S609.266,361.724,608.188,361.724z"/>
			<path d="M620.742,362.778v3.156c0,0.886,0.458,1.328,1.375,1.328c0.442,0,0.875-0.062,1.297-0.184s0.875-0.319,1.359-0.59v-3.711
				h1.836v8.641h-1.836v-3.664c-0.505,0.313-0.993,0.543-1.465,0.691s-0.985,0.223-1.543,0.223c-0.901,0-1.604-0.233-2.109-0.699
				s-0.758-1.118-0.758-1.957v-3.234H620.742z"/>
			<path d="M634.641,371.419l-0.367-1.203h-0.063c-0.417,0.526-0.836,0.884-1.258,1.074s-0.964,0.285-1.625,0.285
				c-0.849,0-1.512-0.229-1.988-0.688s-0.715-1.106-0.715-1.945c0-0.891,0.331-1.563,0.992-2.016s1.669-0.7,3.023-0.742l1.492-0.047
				v-0.461c0-0.552-0.129-0.965-0.387-1.238s-0.657-0.41-1.199-0.41c-0.442,0-0.867,0.065-1.273,0.195s-0.797,0.284-1.172,0.461
				l-0.594-1.313c0.469-0.245,0.981-0.431,1.539-0.559s1.083-0.191,1.578-0.191c1.099,0,1.929,0.239,2.488,0.719
				s0.84,1.231,0.84,2.258v5.82H634.641z M631.906,370.169c0.667,0,1.202-0.187,1.605-0.559s0.605-0.895,0.605-1.566v-0.75
				l-1.109,0.047c-0.864,0.031-1.493,0.176-1.887,0.434s-0.59,0.652-0.59,1.184c0,0.386,0.114,0.684,0.344,0.895
				S631.448,370.169,631.906,370.169z"/>
			<path d="M642,371.575c-1.308,0-2.301-0.382-2.98-1.145s-1.02-1.858-1.02-3.285c0-1.453,0.355-2.57,1.066-3.352
				s1.738-1.172,3.082-1.172c0.911,0,1.731,0.169,2.461,0.508l-0.555,1.477c-0.776-0.302-1.417-0.453-1.922-0.453
				c-1.495,0-2.242,0.992-2.242,2.977c0,0.969,0.187,1.696,0.559,2.184s0.918,0.73,1.637,0.73c0.817,0,1.591-0.203,2.32-0.609v1.602
				c-0.328,0.192-0.679,0.331-1.051,0.414S642.531,371.575,642,371.575z"/>
			<path d="M652.93,362.778v1.438h-2.813v7.203h-1.844v-7.203h-2.813v-1.438H652.93z"/>
			<path d="M656.352,362.778v4.43c0,0.516-0.042,1.273-0.125,2.273l4.336-6.703h2.242v8.641h-1.766v-4.352
				c0-0.239,0.015-0.628,0.043-1.164s0.054-0.927,0.074-1.172l-4.32,6.688h-2.242v-8.641H656.352z"/>
		</g>
	</g>
	<g>
		<g>
			<path d="M757.629,344.692c0,1.859-0.465,3.305-1.395,4.336s-2.246,1.547-3.949,1.547c-1.725,0-3.049-0.512-3.973-1.535
				c-0.925-1.023-1.387-2.478-1.387-4.363s0.465-3.333,1.395-4.344s2.256-1.516,3.98-1.516c1.697,0,3.01,0.513,3.938,1.539
				C757.165,341.383,757.629,342.828,757.629,344.692z M748.91,344.692c0,1.406,0.283,2.473,0.852,3.199
				c0.567,0.727,1.408,1.09,2.523,1.09c1.109,0,1.946-0.359,2.512-1.078c0.564-0.719,0.848-1.789,0.848-3.211
				c0-1.401-0.28-2.464-0.84-3.188c-0.561-0.724-1.395-1.086-2.504-1.086c-1.12,0-1.965,0.362-2.535,1.086
				S748.91,343.291,748.91,344.692z"/>
			<path d="M766.379,341.778v1.438h-2.813v7.203h-1.844v-7.203h-2.813v-1.438H766.379z"/>
			<path d="M775.855,353.474h-1.711v-3.055h-5.922v3.055h-1.695v-4.477h0.703c0.614-0.88,1.103-1.944,1.465-3.191
				c0.361-1.247,0.576-2.59,0.645-4.027h5.25v7.219h1.266V353.474z M772.785,348.997v-5.813h-1.859
				c-0.1,1.073-0.307,2.13-0.621,3.172c-0.315,1.042-0.699,1.922-1.152,2.641H772.785z"/>
			<path d="M781.23,350.575c-1.344,0-2.395-0.392-3.152-1.176s-1.137-1.863-1.137-3.238c0-1.411,0.352-2.521,1.055-3.328
				s1.669-1.211,2.898-1.211c1.141,0,2.041,0.347,2.703,1.039c0.661,0.692,0.992,1.646,0.992,2.859v0.992h-5.758
				c0.025,0.839,0.252,1.483,0.68,1.934c0.427,0.45,1.028,0.676,1.805,0.676c0.51,0,0.985-0.048,1.426-0.145
				c0.439-0.097,0.912-0.257,1.418-0.48v1.492c-0.448,0.214-0.901,0.364-1.359,0.453
				C782.342,350.531,781.818,350.575,781.23,350.575z M780.895,343.013c-0.584,0-1.051,0.185-1.402,0.555s-0.562,0.909-0.629,1.617
				h3.922c-0.011-0.714-0.183-1.254-0.516-1.621C781.936,343.196,781.478,343.013,780.895,343.013z"/>
			<path d="M793.777,350.419h-1.852v-7.203h-2.383c-0.146,1.854-0.343,3.302-0.59,4.344c-0.248,1.042-0.57,1.802-0.969,2.281
				s-0.916,0.719-1.551,0.719c-0.401,0-0.737-0.058-1.008-0.172v-1.438c0.192,0.073,0.385,0.109,0.578,0.109
				c0.531,0,0.949-0.598,1.254-1.793s0.543-3.024,0.715-5.488h5.805V350.419z"/>
			<path d="M804.066,346.083c0,1.411-0.362,2.513-1.086,3.305c-0.725,0.792-1.732,1.188-3.023,1.188
				c-0.808,0-1.521-0.183-2.141-0.547c-0.62-0.364-1.097-0.888-1.43-1.57c-0.334-0.683-0.5-1.474-0.5-2.375
				c0-1.401,0.359-2.495,1.078-3.281s1.731-1.18,3.039-1.18c1.25,0,2.239,0.402,2.969,1.207
				C803.701,343.634,804.066,344.719,804.066,346.083z M797.777,346.083c0,1.995,0.736,2.992,2.211,2.992
				c1.458,0,2.188-0.997,2.188-2.992c0-1.974-0.734-2.961-2.203-2.961c-0.771,0-1.33,0.255-1.676,0.766
				C797.95,344.398,797.777,345.13,797.777,346.083z"/>
			<path d="M807.637,341.778v3.156c0,0.886,0.458,1.328,1.375,1.328c0.442,0,0.875-0.062,1.297-0.184s0.875-0.319,1.359-0.59v-3.711
				h1.836v8.641h-1.836v-3.664c-0.506,0.313-0.994,0.543-1.465,0.691c-0.472,0.148-0.986,0.223-1.543,0.223
				c-0.901,0-1.604-0.233-2.109-0.699c-0.506-0.466-0.758-1.118-0.758-1.957v-3.234H807.637z"/>
			<path d="M817.965,341.778v3.469h4.07v-3.469h1.836v8.641h-1.836v-3.727h-4.07v3.727h-1.836v-8.641H817.965z"/>
			<path d="M828.332,345.231h1.75c1.208,0,2.102,0.208,2.68,0.625s0.867,1.042,0.867,1.875c0,0.891-0.301,1.562-0.902,2.012
				s-1.483,0.676-2.645,0.676h-3.586v-8.641h1.836V345.231z M831.809,347.778c0-0.433-0.16-0.734-0.48-0.906
				s-0.78-0.258-1.379-0.258h-1.617v2.445h1.383c0.739,0,1.273-0.104,1.602-0.313S831.809,348.216,831.809,347.778z
				 M836.832,350.419h-1.844v-8.641h1.844V350.419z"/>
			<path d="M843.23,350.575c-1.344,0-2.395-0.392-3.152-1.176s-1.137-1.863-1.137-3.238c0-1.411,0.352-2.521,1.055-3.328
				s1.669-1.211,2.898-1.211c1.141,0,2.041,0.347,2.703,1.039c0.661,0.692,0.992,1.646,0.992,2.859v0.992h-5.758
				c0.025,0.839,0.252,1.483,0.68,1.934c0.427,0.45,1.028,0.676,1.805,0.676c0.51,0,0.985-0.048,1.426-0.145
				c0.439-0.097,0.912-0.257,1.418-0.48v1.492c-0.448,0.214-0.901,0.364-1.359,0.453
				C844.342,350.531,843.818,350.575,843.23,350.575z M842.895,343.013c-0.584,0-1.051,0.185-1.402,0.555s-0.562,0.909-0.629,1.617
				h3.922c-0.011-0.714-0.183-1.254-0.516-1.621C843.936,343.196,843.478,343.013,842.895,343.013z"/>
			<path d="M857.215,350.575c-1.094,0-1.943-0.394-2.547-1.18h-0.109c0.072,0.729,0.109,1.172,0.109,1.328v3.539h-1.836v-12.484
				h1.484c0.041,0.161,0.127,0.547,0.258,1.156h0.094c0.572-0.875,1.432-1.313,2.578-1.313c1.078,0,1.918,0.391,2.52,1.172
				s0.902,1.878,0.902,3.289s-0.307,2.513-0.918,3.305C859.138,350.18,858.293,350.575,857.215,350.575z M856.77,343.122
				c-0.729,0-1.262,0.214-1.598,0.641s-0.504,1.109-0.504,2.047v0.273c0,1.052,0.166,1.813,0.5,2.285
				c0.333,0.472,0.877,0.707,1.633,0.707c0.635,0,1.125-0.261,1.469-0.781s0.516-1.263,0.516-2.227c0-0.969-0.171-1.702-0.512-2.199
				C857.932,343.371,857.431,343.122,856.77,343.122z"/>
			<path d="M868.207,350.419l-0.367-1.203h-0.063c-0.417,0.526-0.836,0.884-1.258,1.074s-0.964,0.285-1.625,0.285
				c-0.85,0-1.512-0.229-1.988-0.688s-0.715-1.106-0.715-1.945c0-0.891,0.33-1.563,0.992-2.016c0.661-0.453,1.669-0.7,3.023-0.742
				l1.492-0.047v-0.461c0-0.552-0.129-0.965-0.387-1.238s-0.658-0.41-1.199-0.41c-0.443,0-0.867,0.065-1.273,0.195
				s-0.797,0.284-1.172,0.461l-0.594-1.313c0.469-0.245,0.981-0.431,1.539-0.559c0.557-0.128,1.083-0.191,1.578-0.191
				c1.099,0,1.928,0.239,2.488,0.719c0.56,0.479,0.84,1.231,0.84,2.258v5.82H868.207z M865.473,349.169
				c0.666,0,1.201-0.187,1.605-0.559c0.403-0.372,0.605-0.895,0.605-1.566v-0.75l-1.109,0.047c-0.865,0.031-1.494,0.176-1.887,0.434
				c-0.394,0.258-0.59,0.652-0.59,1.184c0,0.386,0.114,0.684,0.344,0.895C864.67,349.063,865.014,349.169,865.473,349.169z"/>
			<path d="M871.582,345.231c0-1.927,0.326-3.409,0.98-4.445c0.653-1.036,1.693-1.703,3.121-2c1.078-0.219,2.32-0.433,3.727-0.641
				l0.258,1.617c-1.709,0.261-2.959,0.464-3.75,0.609c-0.818,0.151-1.408,0.487-1.77,1.008c-0.362,0.521-0.572,1.305-0.629,2.352
				h0.117c0.297-0.433,0.685-0.767,1.164-1.004c0.479-0.237,0.992-0.355,1.539-0.355c1.063,0,1.891,0.336,2.484,1.008
				s0.891,1.614,0.891,2.828c0,1.391-0.361,2.466-1.082,3.227c-0.722,0.761-1.721,1.141-2.996,1.141
				c-1.266,0-2.258-0.469-2.977-1.406S871.582,346.919,871.582,345.231z M875.762,349.075c1.364,0,2.047-0.896,2.047-2.688
				c0-1.729-0.617-2.594-1.852-2.594c-0.339,0-0.667,0.073-0.984,0.219c-0.318,0.146-0.611,0.339-0.879,0.578
				c-0.269,0.239-0.476,0.487-0.621,0.742c0,1.229,0.195,2.16,0.586,2.793S875.017,349.075,875.762,349.075z"/>
			<path d="M889.488,346.083c0,1.411-0.362,2.513-1.086,3.305c-0.725,0.792-1.732,1.188-3.023,1.188
				c-0.808,0-1.521-0.183-2.141-0.547c-0.62-0.364-1.097-0.888-1.43-1.57c-0.334-0.683-0.5-1.474-0.5-2.375
				c0-1.401,0.359-2.495,1.078-3.281s1.731-1.18,3.039-1.18c1.25,0,2.239,0.402,2.969,1.207
				C889.123,343.634,889.488,344.719,889.488,346.083z M883.199,346.083c0,1.995,0.736,2.992,2.211,2.992
				c1.458,0,2.188-0.997,2.188-2.992c0-1.974-0.734-2.961-2.203-2.961c-0.771,0-1.33,0.255-1.676,0.766
				C883.372,344.398,883.199,345.13,883.199,346.083z"/>
			<path d="M897.934,341.778v1.438h-2.813v7.203h-1.844v-7.203h-2.813v-1.438H897.934z"/>
			<path d="M901.434,345.231h1.75c1.208,0,2.102,0.208,2.68,0.625s0.867,1.042,0.867,1.875c0,0.891-0.301,1.562-0.902,2.012
				s-1.483,0.676-2.645,0.676h-3.586v-8.641h1.836V345.231z M904.91,347.778c0-0.433-0.16-0.734-0.48-0.906s-0.78-0.258-1.379-0.258
				h-1.617v2.445h1.383c0.739,0,1.273-0.104,1.602-0.313S904.91,348.216,904.91,347.778z M909.934,350.419h-1.844v-8.641h1.844
				V350.419z"/>
			<path d="M914.465,348.739c-0.25,0.969-0.709,2.216-1.375,3.742h-1.352c0.359-1.406,0.627-2.714,0.805-3.922h1.805
				L914.465,348.739z"/>
			<path d="M763.461,366.231c0-1.927,0.326-3.409,0.98-4.445c0.653-1.036,1.693-1.703,3.121-2c1.078-0.219,2.32-0.433,3.727-0.641
				l0.258,1.617c-1.709,0.261-2.959,0.464-3.75,0.609c-0.818,0.151-1.408,0.487-1.77,1.008c-0.362,0.521-0.572,1.305-0.629,2.352
				h0.117c0.297-0.433,0.685-0.767,1.164-1.004c0.479-0.237,0.992-0.355,1.539-0.355c1.063,0,1.891,0.336,2.484,1.008
				s0.891,1.614,0.891,2.828c0,1.391-0.361,2.466-1.082,3.227c-0.722,0.761-1.721,1.141-2.996,1.141
				c-1.266,0-2.258-0.469-2.977-1.406S763.461,367.919,763.461,366.231z M767.641,370.075c1.364,0,2.047-0.896,2.047-2.688
				c0-1.729-0.617-2.594-1.852-2.594c-0.339,0-0.667,0.073-0.984,0.219c-0.318,0.146-0.611,0.339-0.879,0.578
				c-0.269,0.239-0.476,0.487-0.621,0.742c0,1.229,0.195,2.16,0.586,2.793S766.896,370.075,767.641,370.075z"/>
			<path d="M780.805,371.419h-1.852v-7.203h-2.383c-0.146,1.854-0.343,3.302-0.59,4.344c-0.248,1.042-0.57,1.802-0.969,2.281
				s-0.916,0.719-1.551,0.719c-0.401,0-0.737-0.058-1.008-0.172v-1.438c0.192,0.073,0.385,0.109,0.578,0.109
				c0.531,0,0.949-0.598,1.254-1.793s0.543-3.024,0.715-5.488h5.805V371.419z"/>
			<path d="M788.836,371.419l-0.367-1.203h-0.063c-0.417,0.526-0.836,0.884-1.258,1.074s-0.964,0.285-1.625,0.285
				c-0.85,0-1.512-0.229-1.988-0.688s-0.715-1.106-0.715-1.945c0-0.891,0.33-1.563,0.992-2.016c0.661-0.453,1.669-0.7,3.023-0.742
				l1.492-0.047v-0.461c0-0.552-0.129-0.965-0.387-1.238s-0.658-0.41-1.199-0.41c-0.443,0-0.867,0.065-1.273,0.195
				s-0.797,0.284-1.172,0.461l-0.594-1.313c0.469-0.245,0.981-0.431,1.539-0.559c0.557-0.128,1.083-0.191,1.578-0.191
				c1.099,0,1.928,0.239,2.488,0.719c0.56,0.479,0.84,1.231,0.84,2.258v5.82H788.836z M786.102,370.169
				c0.666,0,1.201-0.187,1.605-0.559c0.403-0.372,0.605-0.895,0.605-1.566v-0.75l-1.109,0.047c-0.865,0.031-1.494,0.176-1.887,0.434
				c-0.394,0.258-0.59,0.652-0.59,1.184c0,0.386,0.114,0.684,0.344,0.895C785.299,370.063,785.643,370.169,786.102,370.169z"/>
			<path d="M798.297,362.778v1.438h-3.75v7.203h-1.836v-8.641H798.297z"/>
			<path d="M807.469,367.083c0,1.411-0.362,2.513-1.086,3.305c-0.725,0.792-1.732,1.188-3.023,1.188
				c-0.808,0-1.521-0.183-2.141-0.547c-0.62-0.364-1.097-0.888-1.43-1.57c-0.334-0.683-0.5-1.474-0.5-2.375
				c0-1.401,0.359-2.495,1.078-3.281s1.731-1.18,3.039-1.18c1.25,0,2.239,0.402,2.969,1.207
				C807.104,364.634,807.469,365.719,807.469,367.083z M801.18,367.083c0,1.995,0.736,2.992,2.211,2.992
				c1.458,0,2.188-0.997,2.188-2.992c0-1.974-0.734-2.961-2.203-2.961c-0.771,0-1.33,0.255-1.676,0.766
				C801.353,365.398,801.18,366.13,801.18,367.083z"/>
			<path d="M808.109,362.778h2l1.758,4.898c0.266,0.698,0.442,1.354,0.531,1.969h0.063c0.047-0.286,0.133-0.634,0.258-1.043
				s0.786-2.351,1.984-5.824h1.984l-3.695,9.789c-0.672,1.797-1.792,2.695-3.359,2.695c-0.406,0-0.803-0.044-1.188-0.133v-1.453
				c0.275,0.063,0.591,0.094,0.945,0.094c0.885,0,1.508-0.513,1.867-1.539l0.32-0.813L808.109,362.778z"/>
			<path d="M821.484,371.575c-1.308,0-2.301-0.382-2.98-1.145s-1.02-1.858-1.02-3.285c0-1.453,0.355-2.57,1.066-3.352
				s1.738-1.172,3.082-1.172c0.911,0,1.731,0.169,2.461,0.508l-0.555,1.477c-0.776-0.302-1.417-0.453-1.922-0.453
				c-1.495,0-2.242,0.992-2.242,2.977c0,0.969,0.186,1.696,0.559,2.184c0.372,0.487,0.918,0.73,1.637,0.73
				c0.817,0,1.591-0.203,2.32-0.609v1.602c-0.328,0.192-0.679,0.331-1.051,0.414C822.467,371.533,822.016,371.575,821.484,371.575z"
				/>
			<path d="M832.414,362.778v1.438h-2.813v7.203h-1.844v-7.203h-2.813v-1.438H832.414z"/>
			<path d="M838.461,371.575c-1.094,0-1.943-0.394-2.547-1.18h-0.109c0.072,0.729,0.109,1.172,0.109,1.328v3.539h-1.836v-12.484
				h1.484c0.041,0.161,0.127,0.547,0.258,1.156h0.094c0.572-0.875,1.432-1.313,2.578-1.313c1.078,0,1.918,0.391,2.52,1.172
				s0.902,1.878,0.902,3.289s-0.307,2.513-0.918,3.305C840.384,371.18,839.539,371.575,838.461,371.575z M838.016,364.122
				c-0.729,0-1.262,0.214-1.598,0.641s-0.504,1.109-0.504,2.047v0.273c0,1.052,0.166,1.813,0.5,2.285
				c0.333,0.472,0.877,0.707,1.633,0.707c0.635,0,1.125-0.261,1.469-0.781s0.516-1.263,0.516-2.227c0-0.969-0.171-1.702-0.512-2.199
				C839.178,364.371,838.677,364.122,838.016,364.122z"/>
			<path d="M851.711,367.083c0,1.411-0.362,2.513-1.086,3.305c-0.725,0.792-1.732,1.188-3.023,1.188
				c-0.808,0-1.521-0.183-2.141-0.547c-0.62-0.364-1.097-0.888-1.43-1.57c-0.334-0.683-0.5-1.474-0.5-2.375
				c0-1.401,0.359-2.495,1.078-3.281s1.731-1.18,3.039-1.18c1.25,0,2.239,0.402,2.969,1.207
				C851.346,364.634,851.711,365.719,851.711,367.083z M845.422,367.083c0,1.995,0.736,2.992,2.211,2.992
				c1.458,0,2.188-0.997,2.188-2.992c0-1.974-0.734-2.961-2.203-2.961c-0.771,0-1.33,0.255-1.676,0.766
				C845.595,365.398,845.422,366.13,845.422,367.083z"/>
			<path d="M855.578,362.778v4.43c0,0.516-0.042,1.273-0.125,2.273l4.336-6.703h2.242v8.641h-1.766v-4.352
				c0-0.239,0.014-0.628,0.043-1.164c0.028-0.536,0.053-0.927,0.074-1.172l-4.32,6.688h-2.242v-8.641H855.578z M857.867,361.724
				c-1.104,0-1.913-0.199-2.426-0.598c-0.514-0.398-0.799-1.063-0.855-1.996h1.664c0.031,0.375,0.103,0.667,0.215,0.875
				c0.111,0.208,0.273,0.358,0.484,0.449s0.532,0.137,0.965,0.137c0.51,0,0.898-0.113,1.164-0.34s0.427-0.601,0.484-1.121h1.695
				c-0.078,0.896-0.394,1.552-0.945,1.969C859.76,361.516,858.945,361.724,857.867,361.724z"/>
			<path d="M868.133,371.575c-1.308,0-2.301-0.382-2.98-1.145s-1.02-1.858-1.02-3.285c0-1.453,0.355-2.57,1.066-3.352
				s1.738-1.172,3.082-1.172c0.911,0,1.731,0.169,2.461,0.508l-0.555,1.477c-0.776-0.302-1.417-0.453-1.922-0.453
				c-1.495,0-2.242,0.992-2.242,2.977c0,0.969,0.186,1.696,0.559,2.184c0.372,0.487,0.918,0.73,1.637,0.73
				c0.817,0,1.591-0.203,2.32-0.609v1.602c-0.328,0.192-0.679,0.331-1.051,0.414C869.115,371.533,868.664,371.575,868.133,371.575z"
				/>
			<path d="M879.063,362.778v1.438h-2.813v7.203h-1.844v-7.203h-2.813v-1.438H879.063z"/>
			<path d="M888.227,364.989c0,1.021-0.597,1.638-1.789,1.852v0.063c0.666,0.078,1.177,0.289,1.531,0.633
				c0.354,0.344,0.531,0.789,0.531,1.336c0,0.817-0.312,1.446-0.934,1.887c-0.623,0.44-1.527,0.66-2.715,0.66h-4.125v-8.641h4.109
				C887.096,362.778,888.227,363.516,888.227,364.989z M886.391,365.146c0-0.344-0.135-0.593-0.402-0.746
				c-0.269-0.153-0.668-0.23-1.199-0.23h-2.227v2.078h1.953c0.614,0,1.08-0.079,1.398-0.238
				C886.231,365.85,886.391,365.563,886.391,365.146z M886.617,368.763c0-0.417-0.162-0.712-0.484-0.887
				c-0.323-0.175-0.808-0.262-1.453-0.262h-2.117v2.445h2.164C885.986,370.06,886.617,369.627,886.617,368.763z"/>
			<path d="M898.055,367.083c0,1.411-0.362,2.513-1.086,3.305c-0.725,0.792-1.732,1.188-3.023,1.188
				c-0.808,0-1.521-0.183-2.141-0.547c-0.62-0.364-1.097-0.888-1.43-1.57c-0.334-0.683-0.5-1.474-0.5-2.375
				c0-1.401,0.359-2.495,1.078-3.281s1.731-1.18,3.039-1.18c1.25,0,2.239,0.402,2.969,1.207
				C897.689,364.634,898.055,365.719,898.055,367.083z M891.766,367.083c0,1.995,0.736,2.992,2.211,2.992
				c1.458,0,2.188-0.997,2.188-2.992c0-1.974-0.734-2.961-2.203-2.961c-0.771,0-1.33,0.255-1.676,0.766
				C891.938,365.398,891.766,366.13,891.766,367.083z"/>
		</g>
	</g>
	<g>
		<g>
			<path d="M975.965,338.997h3.391c1.572,0,2.709,0.229,3.41,0.688c0.7,0.458,1.051,1.183,1.051,2.172
				c0,0.667-0.172,1.222-0.516,1.664s-0.839,0.722-1.484,0.836v0.078c0.802,0.151,1.392,0.449,1.77,0.895
				c0.377,0.445,0.566,1.048,0.566,1.809c0,1.026-0.358,1.829-1.074,2.41c-0.717,0.581-1.713,0.871-2.988,0.871h-4.125V338.997z
				 M977.832,343.716h1.797c0.781,0,1.352-0.124,1.711-0.371s0.539-0.668,0.539-1.262c0-0.536-0.194-0.925-0.582-1.164
				c-0.389-0.239-1.004-0.359-1.848-0.359h-1.617V343.716z M977.832,345.231v3.617h1.984c0.781,0,1.371-0.149,1.77-0.449
				s0.598-0.772,0.598-1.418c0-0.594-0.203-1.034-0.609-1.32s-1.023-0.43-1.852-0.43H977.832z"/>
			<path d="M993.832,343.989c0,1.021-0.597,1.638-1.789,1.852v0.063c0.666,0.078,1.177,0.289,1.531,0.633
				c0.354,0.344,0.531,0.789,0.531,1.336c0,0.817-0.312,1.446-0.934,1.887c-0.623,0.44-1.527,0.66-2.715,0.66h-4.125v-8.641h4.109
				C992.701,341.778,993.832,342.516,993.832,343.989z M991.996,344.146c0-0.344-0.135-0.593-0.402-0.746
				c-0.269-0.153-0.668-0.23-1.199-0.23h-2.227v2.078h1.953c0.614,0,1.08-0.079,1.398-0.238
				C991.837,344.85,991.996,344.563,991.996,344.146z M992.223,347.763c0-0.417-0.162-0.712-0.484-0.887
				c-0.323-0.175-0.808-0.262-1.453-0.262h-2.117v2.445h2.164C991.592,349.06,992.223,348.627,992.223,347.763z"/>
			<path d="M1003.66,346.083c0,1.411-0.362,2.513-1.086,3.305c-0.725,0.792-1.732,1.188-3.023,1.188
				c-0.808,0-1.521-0.183-2.141-0.547c-0.62-0.364-1.097-0.888-1.43-1.57c-0.334-0.683-0.5-1.474-0.5-2.375
				c0-1.401,0.359-2.495,1.078-3.281s1.731-1.18,3.039-1.18c1.25,0,2.239,0.402,2.969,1.207
				C1003.295,343.634,1003.66,344.719,1003.66,346.083z M997.371,346.083c0,1.995,0.736,2.992,2.211,2.992
				c1.458,0,2.188-0.997,2.188-2.992c0-1.974-0.734-2.961-2.203-2.961c-0.771,0-1.33,0.255-1.676,0.766
				C997.544,344.398,997.371,345.13,997.371,346.083z"/>
			<path d="M1014.059,353.474h-1.711v-3.055h-5.922v3.055h-1.695v-4.477h0.703c0.614-0.88,1.103-1.944,1.465-3.191
				c0.361-1.247,0.576-2.59,0.645-4.027h5.25v7.219h1.266V353.474z M1010.988,348.997v-5.813h-1.859
				c-0.1,1.073-0.307,2.13-0.621,3.172c-0.315,1.042-0.699,1.922-1.152,2.641H1010.988z"/>
			<path d="M1027.316,343.989c0,1.021-0.597,1.638-1.789,1.852v0.063c0.666,0.078,1.177,0.289,1.531,0.633
				c0.354,0.344,0.531,0.789,0.531,1.336c0,0.817-0.312,1.446-0.934,1.887c-0.623,0.44-1.527,0.66-2.715,0.66h-4.125v-8.641h4.109
				C1026.186,341.778,1027.316,342.516,1027.316,343.989z M1025.48,344.146c0-0.344-0.135-0.593-0.402-0.746
				c-0.269-0.153-0.668-0.23-1.199-0.23h-2.227v2.078h1.953c0.614,0,1.08-0.079,1.398-0.238
				C1025.321,344.85,1025.48,344.563,1025.48,344.146z M1025.707,347.763c0-0.417-0.162-0.712-0.484-0.887
				c-0.323-0.175-0.808-0.262-1.453-0.262h-2.117v2.445h2.164C1025.076,349.06,1025.707,348.627,1025.707,347.763z"/>
			<path d="M1035.285,350.575c-0.964,0-1.779-0.164-2.445-0.492v-1.508c0.828,0.364,1.633,0.547,2.414,0.547
				c1.489,0,2.283-0.815,2.383-2.445h-3.805v-1.344h3.805c-0.063-0.776-0.273-1.347-0.633-1.711s-0.881-0.547-1.563-0.547
				c-0.511,0-1.183,0.148-2.016,0.445l-0.508-1.359c0.349-0.161,0.751-0.292,1.207-0.391c0.455-0.099,0.904-0.148,1.348-0.148
				c1.359,0,2.377,0.375,3.055,1.125c0.677,0.75,1.016,1.852,1.016,3.305s-0.363,2.57-1.09,3.352S1036.67,350.575,1035.285,350.575z
				"/>
			<path d="M1047.027,341.778h2.016l-3.57,4.164l3.875,4.477h-2.109l-3.734-4.383v4.383h-1.836v-8.641h1.836v4.195L1047.027,341.778
				z"/>
			<path d="M1053.934,350.575c-1.308,0-2.301-0.382-2.98-1.145s-1.02-1.858-1.02-3.285c0-1.453,0.355-2.57,1.066-3.352
				s1.738-1.172,3.082-1.172c0.911,0,1.731,0.169,2.461,0.508l-0.555,1.477c-0.776-0.302-1.417-0.453-1.922-0.453
				c-1.495,0-2.242,0.992-2.242,2.977c0,0.969,0.186,1.696,0.559,2.184c0.372,0.487,0.918,0.73,1.637,0.73
				c0.817,0,1.591-0.203,2.32-0.609v1.602c-0.328,0.192-0.679,0.331-1.051,0.414
				C1054.916,350.533,1054.465,350.575,1053.934,350.575z"/>
			<path d="M1065.926,341.778v8.641h-1.844v-7.188h-3.875v7.188h-1.836v-8.641H1065.926z"/>
			<path d="M1075.652,350.419h-1.852v-7.203h-2.383c-0.146,1.854-0.343,3.302-0.59,4.344c-0.248,1.042-0.57,1.802-0.969,2.281
				s-0.916,0.719-1.551,0.719c-0.401,0-0.737-0.058-1.008-0.172v-1.438c0.192,0.073,0.385,0.109,0.578,0.109
				c0.531,0,0.949-0.598,1.254-1.793s0.543-3.024,0.715-5.488h5.805V350.419z"/>
			<path d="M1076.965,341.778h2l1.758,4.898c0.266,0.698,0.442,1.354,0.531,1.969h0.063c0.047-0.286,0.133-0.634,0.258-1.043
				s0.786-2.351,1.984-5.824h1.984l-3.695,9.789c-0.672,1.797-1.792,2.695-3.359,2.695c-0.406,0-0.803-0.044-1.188-0.133v-1.453
				c0.275,0.063,0.591,0.094,0.945,0.094c0.885,0,1.508-0.513,1.867-1.539l0.32-0.813L1076.965,341.778z"/>
			<path d="M1092.262,350.419l-0.367-1.203h-0.063c-0.417,0.526-0.836,0.884-1.258,1.074s-0.964,0.285-1.625,0.285
				c-0.85,0-1.512-0.229-1.988-0.688s-0.715-1.106-0.715-1.945c0-0.891,0.33-1.563,0.992-2.016c0.661-0.453,1.669-0.7,3.023-0.742
				l1.492-0.047v-0.461c0-0.552-0.129-0.965-0.387-1.238s-0.658-0.41-1.199-0.41c-0.443,0-0.867,0.065-1.273,0.195
				s-0.797,0.284-1.172,0.461l-0.594-1.313c0.469-0.245,0.981-0.431,1.539-0.559c0.557-0.128,1.083-0.191,1.578-0.191
				c1.099,0,1.928,0.239,2.488,0.719c0.56,0.479,0.84,1.231,0.84,2.258v5.82H1092.262z M1089.527,349.169
				c0.666,0,1.201-0.187,1.605-0.559c0.403-0.372,0.605-0.895,0.605-1.566v-0.75l-1.109,0.047c-0.865,0.031-1.494,0.176-1.887,0.434
				c-0.394,0.258-0.59,0.652-0.59,1.184c0,0.386,0.114,0.684,0.344,0.895C1088.725,349.063,1089.068,349.169,1089.527,349.169z"/>
			<path d="M1102.629,341.778v1.438h-2.813v7.203h-1.844v-7.203h-2.813v-1.438H1102.629z"/>
			<path d="M1109.699,350.419l-0.367-1.203h-0.063c-0.417,0.526-0.836,0.884-1.258,1.074s-0.964,0.285-1.625,0.285
				c-0.85,0-1.512-0.229-1.988-0.688s-0.715-1.106-0.715-1.945c0-0.891,0.33-1.563,0.992-2.016c0.661-0.453,1.669-0.7,3.023-0.742
				l1.492-0.047v-0.461c0-0.552-0.129-0.965-0.387-1.238s-0.658-0.41-1.199-0.41c-0.443,0-0.867,0.065-1.273,0.195
				s-0.797,0.284-1.172,0.461l-0.594-1.313c0.469-0.245,0.981-0.431,1.539-0.559c0.557-0.128,1.083-0.191,1.578-0.191
				c1.099,0,1.928,0.239,2.488,0.719c0.56,0.479,0.84,1.231,0.84,2.258v5.82H1109.699z M1106.965,349.169
				c0.666,0,1.201-0.187,1.605-0.559c0.403-0.372,0.605-0.895,0.605-1.566v-0.75l-1.109,0.047c-0.865,0.031-1.494,0.176-1.887,0.434
				c-0.394,0.258-0.59,0.652-0.59,1.184c0,0.386,0.114,0.684,0.344,0.895C1106.162,349.063,1106.506,349.169,1106.965,349.169z"/>
			<path d="M1121.27,348.997h1.25v4.461h-1.727v-3.039h-7.219v-8.641h1.836v7.188h4.023v-7.188h1.836V348.997z"/>
			<path d="M1125.848,341.778v4.43c0,0.516-0.042,1.273-0.125,2.273l4.336-6.703h2.242v8.641h-1.766v-4.352
				c0-0.239,0.014-0.628,0.043-1.164c0.028-0.536,0.053-0.927,0.074-1.172l-4.32,6.688h-2.242v-8.641H1125.848z"/>
			<path d="M1146.457,346.083c0,1.417-0.346,2.52-1.035,3.309c-0.69,0.789-1.652,1.184-2.887,1.184
				c-1.136,0-2.038-0.335-2.707-1.004c-0.67-0.669-1.059-1.629-1.168-2.879h-1.906v3.727h-1.836v-8.641h1.836v3.469h1.922
				c0.13-1.146,0.532-2.036,1.207-2.672c0.674-0.636,1.568-0.953,2.684-0.953c1.197,0,2.146,0.402,2.844,1.207
				C1146.107,343.634,1146.457,344.719,1146.457,346.083z M1140.535,346.083c0,0.984,0.157,1.729,0.473,2.234
				c0.314,0.505,0.829,0.758,1.543,0.758c0.708,0,1.221-0.253,1.539-0.758c0.317-0.505,0.477-1.25,0.477-2.234
				c0-0.974-0.159-1.711-0.477-2.211c-0.318-0.5-0.831-0.75-1.539-0.75c-0.714,0-1.229,0.25-1.543,0.75
				C1140.692,344.372,1140.535,345.109,1140.535,346.083z"/>
			<path d="M1150.488,348.739c-0.25,0.969-0.709,2.216-1.375,3.742h-1.352c0.359-1.406,0.627-2.714,0.805-3.922h1.805
				L1150.488,348.739z"/>
			<path d="M968.723,362.778v8.641h-1.844v-7.188h-3.875v7.188h-1.836v-8.641H968.723z"/>
			<path d="M979.012,367.083c0,1.411-0.362,2.513-1.086,3.305c-0.725,0.792-1.732,1.188-3.023,1.188
				c-0.808,0-1.521-0.183-2.141-0.547c-0.62-0.364-1.097-0.888-1.43-1.57c-0.334-0.683-0.5-1.474-0.5-2.375
				c0-1.401,0.359-2.495,1.078-3.281s1.731-1.18,3.039-1.18c1.25,0,2.239,0.402,2.969,1.207
				C978.646,364.634,979.012,365.719,979.012,367.083z M972.723,367.083c0,1.995,0.736,2.992,2.211,2.992
				c1.458,0,2.188-0.997,2.188-2.992c0-1.974-0.734-2.961-2.203-2.961c-0.771,0-1.33,0.255-1.676,0.766
				C972.896,365.398,972.723,366.13,972.723,367.083z"/>
			<path d="M988.223,371.419h-1.852v-7.203h-2.383c-0.146,1.854-0.343,3.302-0.59,4.344c-0.248,1.042-0.57,1.802-0.969,2.281
				s-0.916,0.719-1.551,0.719c-0.401,0-0.737-0.058-1.008-0.172v-1.438c0.192,0.073,0.385,0.109,0.578,0.109
				c0.531,0,0.949-0.598,1.254-1.793s0.543-3.024,0.715-5.488h5.805V371.419z"/>
			<path d="M989.535,362.778h2l1.758,4.898c0.266,0.698,0.442,1.354,0.531,1.969h0.063c0.047-0.286,0.133-0.634,0.258-1.043
				s0.786-2.351,1.984-5.824h1.984l-3.695,9.789c-0.672,1.797-1.792,2.695-3.359,2.695c-0.406,0-0.803-0.044-1.188-0.133v-1.453
				c0.275,0.063,0.591,0.094,0.945,0.094c0.885,0,1.508-0.513,1.867-1.539l0.32-0.813L989.535,362.778z"/>
			<path d="M1001.043,362.778v3.156c0,0.886,0.458,1.328,1.375,1.328c0.442,0,0.875-0.062,1.297-0.184s0.875-0.319,1.359-0.59
				v-3.711h1.836v8.641h-1.836v-3.664c-0.506,0.313-0.994,0.543-1.465,0.691c-0.472,0.148-0.986,0.223-1.543,0.223
				c-0.901,0-1.604-0.233-2.109-0.699c-0.506-0.466-0.758-1.118-0.758-1.957v-3.234H1001.043z"/>
			<path d="M1013.309,371.575c-1.344,0-2.395-0.392-3.152-1.176s-1.137-1.863-1.137-3.238c0-1.411,0.352-2.521,1.055-3.328
				s1.669-1.211,2.898-1.211c1.141,0,2.041,0.347,2.703,1.039c0.661,0.692,0.992,1.646,0.992,2.859v0.992h-5.758
				c0.025,0.839,0.252,1.483,0.68,1.934c0.427,0.45,1.028,0.676,1.805,0.676c0.51,0,0.985-0.048,1.426-0.145
				c0.439-0.097,0.912-0.257,1.418-0.48v1.492c-0.448,0.214-0.901,0.364-1.359,0.453
				C1014.42,371.531,1013.896,371.575,1013.309,371.575z M1012.973,364.013c-0.584,0-1.051,0.185-1.402,0.555
				s-0.562,0.909-0.629,1.617h3.922c-0.011-0.714-0.183-1.254-0.516-1.621C1014.014,364.196,1013.556,364.013,1012.973,364.013z"/>
			<path d="M1020.59,362.778v3.469h4.07v-3.469h1.836v8.641h-1.836v-3.727h-4.07v3.727h-1.836v-8.641H1020.59z"/>
			<path d="M1030.879,362.778v4.43c0,0.516-0.042,1.273-0.125,2.273l4.336-6.703h2.242v8.641h-1.766v-4.352
				c0-0.239,0.014-0.628,0.043-1.164c0.028-0.536,0.053-0.927,0.074-1.172l-4.32,6.688h-2.242v-8.641H1030.879z"/>
			<path d="M1043.723,371.575c-1.344,0-2.395-0.392-3.152-1.176s-1.137-1.863-1.137-3.238c0-1.411,0.352-2.521,1.055-3.328
				s1.669-1.211,2.898-1.211c1.141,0,2.041,0.347,2.703,1.039c0.661,0.692,0.992,1.646,0.992,2.859v0.992h-5.758
				c0.025,0.839,0.252,1.483,0.68,1.934c0.427,0.45,1.028,0.676,1.805,0.676c0.51,0,0.985-0.048,1.426-0.145
				c0.439-0.097,0.912-0.257,1.418-0.48v1.492c-0.448,0.214-0.901,0.364-1.359,0.453
				C1044.834,371.531,1044.311,371.575,1043.723,371.575z M1043.387,364.013c-0.584,0-1.051,0.185-1.402,0.555
				s-0.562,0.909-0.629,1.617h3.922c-0.011-0.714-0.183-1.254-0.516-1.621C1044.428,364.196,1043.97,364.013,1043.387,364.013z"/>
			<path d="M1056.809,371.575c-1.308,0-2.301-0.382-2.98-1.145s-1.02-1.858-1.02-3.285c0-1.453,0.355-2.57,1.066-3.352
				s1.738-1.172,3.082-1.172c0.911,0,1.731,0.169,2.461,0.508l-0.555,1.477c-0.776-0.302-1.417-0.453-1.922-0.453
				c-1.495,0-2.242,0.992-2.242,2.977c0,0.969,0.186,1.696,0.559,2.184c0.372,0.487,0.918,0.73,1.637,0.73
				c0.817,0,1.591-0.203,2.32-0.609v1.602c-0.328,0.192-0.679,0.331-1.051,0.414C1057.791,371.533,1057.34,371.575,1056.809,371.575
				z"/>
			<path d="M1068.746,364.989c0,1.021-0.597,1.638-1.789,1.852v0.063c0.666,0.078,1.177,0.289,1.531,0.633
				c0.354,0.344,0.531,0.789,0.531,1.336c0,0.817-0.312,1.446-0.934,1.887c-0.623,0.44-1.527,0.66-2.715,0.66h-4.125v-8.641h4.109
				C1067.615,362.778,1068.746,363.516,1068.746,364.989z M1066.91,365.146c0-0.344-0.135-0.593-0.402-0.746
				c-0.269-0.153-0.668-0.23-1.199-0.23h-2.227v2.078h1.953c0.614,0,1.08-0.079,1.398-0.238
				C1066.751,365.85,1066.91,365.563,1066.91,365.146z M1067.137,368.763c0-0.417-0.162-0.712-0.484-0.887
				c-0.323-0.175-0.808-0.262-1.453-0.262h-2.117v2.445h2.164C1066.506,370.06,1067.137,369.627,1067.137,368.763z"/>
			<path d="M1072.668,362.778v4.43c0,0.516-0.042,1.273-0.125,2.273l4.336-6.703h2.242v8.641h-1.766v-4.352
				c0-0.239,0.014-0.628,0.043-1.164c0.028-0.536,0.053-0.927,0.074-1.172l-4.32,6.688h-2.242v-8.641H1072.668z"/>
			<path d="M1090.027,374.474h-1.711v-3.055h-5.922v3.055h-1.695v-4.477h0.703c0.614-0.88,1.103-1.944,1.465-3.191
				c0.361-1.247,0.576-2.59,0.645-4.027h5.25v7.219h1.266V374.474z M1086.957,369.997v-5.813h-1.859
				c-0.1,1.073-0.307,2.13-0.621,3.172c-0.315,1.042-0.699,1.922-1.152,2.641H1086.957z"/>
			<path d="M1095.402,371.575c-1.344,0-2.395-0.392-3.152-1.176s-1.137-1.863-1.137-3.238c0-1.411,0.352-2.521,1.055-3.328
				s1.669-1.211,2.898-1.211c1.141,0,2.041,0.347,2.703,1.039c0.661,0.692,0.992,1.646,0.992,2.859v0.992h-5.758
				c0.025,0.839,0.252,1.483,0.68,1.934c0.427,0.45,1.028,0.676,1.805,0.676c0.51,0,0.985-0.048,1.426-0.145
				c0.439-0.097,0.912-0.257,1.418-0.48v1.492c-0.448,0.214-0.901,0.364-1.359,0.453
				C1096.514,371.531,1095.99,371.575,1095.402,371.575z M1095.066,364.013c-0.584,0-1.051,0.185-1.402,0.555
				s-0.562,0.909-0.629,1.617h3.922c-0.011-0.714-0.183-1.254-0.516-1.621C1096.107,364.196,1095.649,364.013,1095.066,364.013z"/>
			<path d="M1107.34,362.778v1.438h-2.813v7.203h-1.844v-7.203h-2.813v-1.438H1107.34z"/>
			<path d="M1112.621,371.575c-1.344,0-2.395-0.392-3.152-1.176s-1.137-1.863-1.137-3.238c0-1.411,0.352-2.521,1.055-3.328
				s1.669-1.211,2.898-1.211c1.141,0,2.041,0.347,2.703,1.039c0.661,0.692,0.992,1.646,0.992,2.859v0.992h-5.758
				c0.025,0.839,0.252,1.483,0.68,1.934c0.427,0.45,1.028,0.676,1.805,0.676c0.51,0,0.985-0.048,1.426-0.145
				c0.439-0.097,0.912-0.257,1.418-0.48v1.492c-0.448,0.214-0.901,0.364-1.359,0.453
				C1113.732,371.531,1113.209,371.575,1112.621,371.575z M1112.285,364.013c-0.584,0-1.051,0.185-1.402,0.555
				s-0.562,0.909-0.629,1.617h3.922c-0.011-0.714-0.183-1.254-0.516-1.621C1113.326,364.196,1112.868,364.013,1112.285,364.013z"/>
			<path d="M1125.168,371.419h-1.852v-7.203h-2.383c-0.146,1.854-0.343,3.302-0.59,4.344c-0.248,1.042-0.57,1.802-0.969,2.281
				s-0.916,0.719-1.551,0.719c-0.401,0-0.737-0.058-1.008-0.172v-1.438c0.192,0.073,0.385,0.109,0.578,0.109
				c0.531,0,0.949-0.598,1.254-1.793s0.543-3.024,0.715-5.488h5.805V371.419z"/>
			<path d="M1129.629,366.231h2.164c2.411,0,3.617,0.833,3.617,2.5c0,0.88-0.308,1.548-0.922,2.004
				c-0.615,0.456-1.514,0.684-2.695,0.684h-4v-8.641h1.836V366.231z M1133.566,368.778c0-0.433-0.164-0.734-0.492-0.906
				s-0.792-0.258-1.391-0.258h-2.055v2.445h2.086c0.604,0,1.063-0.109,1.379-0.328
				C1133.408,369.513,1133.566,369.195,1133.566,368.778z"/>
			<path d="M1140.926,371.575c-1.308,0-2.301-0.382-2.98-1.145s-1.02-1.858-1.02-3.285c0-1.453,0.355-2.57,1.066-3.352
				s1.738-1.172,3.082-1.172c0.911,0,1.731,0.169,2.461,0.508l-0.555,1.477c-0.776-0.302-1.417-0.453-1.922-0.453
				c-1.495,0-2.242,0.992-2.242,2.977c0,0.969,0.186,1.696,0.559,2.184c0.372,0.487,0.918,0.73,1.637,0.73
				c0.817,0,1.591-0.203,2.32-0.609v1.602c-0.328,0.192-0.679,0.331-1.051,0.414
				C1141.908,371.533,1141.457,371.575,1140.926,371.575z"/>
			<path d="M1151.855,362.778v1.438h-2.813v7.203h-1.844v-7.203h-2.813v-1.438H1151.855z"/>
			<path d="M1161.02,364.989c0,1.021-0.597,1.638-1.789,1.852v0.063c0.666,0.078,1.177,0.289,1.531,0.633
				c0.354,0.344,0.531,0.789,0.531,1.336c0,0.817-0.312,1.446-0.934,1.887c-0.623,0.44-1.527,0.66-2.715,0.66h-4.125v-8.641h4.109
				C1159.889,362.778,1161.02,363.516,1161.02,364.989z M1159.184,365.146c0-0.344-0.135-0.593-0.402-0.746
				c-0.269-0.153-0.668-0.23-1.199-0.23h-2.227v2.078h1.953c0.614,0,1.08-0.079,1.398-0.238
				C1159.024,365.85,1159.184,365.563,1159.184,365.146z M1159.41,368.763c0-0.417-0.162-0.712-0.484-0.887
				c-0.323-0.175-0.808-0.262-1.453-0.262h-2.117v2.445h2.164C1158.779,370.06,1159.41,369.627,1159.41,368.763z"/>
			<path d="M1165.09,369.739c-0.25,0.969-0.709,2.216-1.375,3.742h-1.352c0.359-1.406,0.627-2.714,0.805-3.922h1.805
				L1165.09,369.739z"/>
			<path d="M1020.125,392.575c-1.094,0-1.943-0.394-2.547-1.18h-0.109c0.072,0.729,0.109,1.172,0.109,1.328v3.539h-1.836v-12.484
				h1.484c0.041,0.161,0.127,0.547,0.258,1.156h0.094c0.572-0.875,1.432-1.313,2.578-1.313c1.078,0,1.918,0.391,2.52,1.172
				s0.902,1.878,0.902,3.289s-0.307,2.513-0.918,3.305C1022.048,392.18,1021.203,392.575,1020.125,392.575z M1019.68,385.122
				c-0.729,0-1.262,0.214-1.598,0.641s-0.504,1.109-0.504,2.047v0.273c0,1.052,0.166,1.813,0.5,2.285
				c0.333,0.472,0.877,0.707,1.633,0.707c0.635,0,1.125-0.261,1.469-0.781s0.516-1.263,0.516-2.227c0-0.969-0.171-1.702-0.512-2.199
				C1020.842,385.371,1020.341,385.122,1019.68,385.122z"/>
			<path d="M1029.484,392.575c-1.344,0-2.395-0.392-3.152-1.176s-1.137-1.863-1.137-3.238c0-1.411,0.352-2.521,1.055-3.328
				s1.669-1.211,2.898-1.211c1.141,0,2.041,0.347,2.703,1.039c0.661,0.692,0.992,1.646,0.992,2.859v0.992h-5.758
				c0.025,0.839,0.252,1.483,0.68,1.934c0.427,0.45,1.028,0.676,1.805,0.676c0.51,0,0.985-0.048,1.426-0.145
				c0.439-0.097,0.912-0.257,1.418-0.48v1.492c-0.448,0.214-0.901,0.364-1.359,0.453
				C1030.596,392.531,1030.072,392.575,1029.484,392.575z M1029.148,385.013c-0.584,0-1.051,0.185-1.402,0.555
				s-0.562,0.909-0.629,1.617h3.922c-0.011-0.714-0.183-1.254-0.516-1.621C1030.189,385.196,1029.731,385.013,1029.148,385.013z"/>
			<path d="M1040.336,392.419l-0.367-1.203h-0.063c-0.417,0.526-0.836,0.884-1.258,1.074s-0.964,0.285-1.625,0.285
				c-0.85,0-1.512-0.229-1.988-0.688s-0.715-1.106-0.715-1.945c0-0.891,0.33-1.563,0.992-2.016c0.661-0.453,1.669-0.7,3.023-0.742
				l1.492-0.047v-0.461c0-0.552-0.129-0.965-0.387-1.238s-0.658-0.41-1.199-0.41c-0.443,0-0.867,0.065-1.273,0.195
				s-0.797,0.284-1.172,0.461l-0.594-1.313c0.469-0.245,0.981-0.431,1.539-0.559c0.557-0.128,1.083-0.191,1.578-0.191
				c1.099,0,1.928,0.239,2.488,0.719c0.56,0.479,0.84,1.231,0.84,2.258v5.82H1040.336z M1037.602,391.169
				c0.666,0,1.201-0.187,1.605-0.559c0.403-0.372,0.605-0.895,0.605-1.566v-0.75l-1.109,0.047c-0.865,0.031-1.494,0.176-1.887,0.434
				c-0.394,0.258-0.59,0.652-0.59,1.184c0,0.386,0.114,0.684,0.344,0.895C1036.799,391.063,1037.143,391.169,1037.602,391.169z"/>
			<path d="M1051.313,392.419h-1.852v-7.203h-2.383c-0.146,1.854-0.343,3.302-0.59,4.344c-0.248,1.042-0.57,1.802-0.969,2.281
				s-0.916,0.719-1.551,0.719c-0.401,0-0.737-0.058-1.008-0.172v-1.438c0.192,0.073,0.385,0.109,0.578,0.109
				c0.531,0,0.949-0.598,1.254-1.793s0.543-3.024,0.715-5.488h5.805V392.419z"/>
			<path d="M1055.695,383.778v4.43c0,0.516-0.042,1.273-0.125,2.273l4.336-6.703h2.242v8.641h-1.766v-4.352
				c0-0.239,0.014-0.628,0.043-1.164c0.028-0.536,0.053-0.927,0.074-1.172l-4.32,6.688h-2.242v-8.641H1055.695z"/>
			<path d="M1066.672,387.231c0.838,0,1.455-0.093,1.852-0.277c0.396-0.185,0.594-0.47,0.594-0.855c0-0.703-0.625-1.055-1.875-1.055
				c-0.834,0-1.686,0.188-2.555,0.563l-0.594-1.367c1.005-0.411,2.114-0.617,3.328-0.617c1.072,0,1.906,0.196,2.5,0.59
				s0.891,0.957,0.891,1.691c0,0.969-0.555,1.604-1.664,1.906v0.063c0.692,0.188,1.188,0.456,1.488,0.805
				c0.299,0.349,0.449,0.781,0.449,1.297c0,0.792-0.348,1.423-1.043,1.895s-1.666,0.707-2.91,0.707c-1.359,0-2.398-0.18-3.117-0.539
				v-1.586c0.953,0.448,1.939,0.672,2.961,0.672c0.734,0,1.301-0.103,1.699-0.309s0.598-0.52,0.598-0.941
				c0-0.433-0.201-0.75-0.602-0.953c-0.401-0.203-1.021-0.305-1.859-0.305h-1.055v-1.383H1066.672z"/>
			<path d="M1078.477,392.419l-0.367-1.203h-0.063c-0.417,0.526-0.836,0.884-1.258,1.074s-0.964,0.285-1.625,0.285
				c-0.85,0-1.512-0.229-1.988-0.688s-0.715-1.106-0.715-1.945c0-0.891,0.33-1.563,0.992-2.016c0.661-0.453,1.669-0.7,3.023-0.742
				l1.492-0.047v-0.461c0-0.552-0.129-0.965-0.387-1.238s-0.658-0.41-1.199-0.41c-0.443,0-0.867,0.065-1.273,0.195
				s-0.797,0.284-1.172,0.461l-0.594-1.313c0.469-0.245,0.981-0.431,1.539-0.559c0.557-0.128,1.083-0.191,1.578-0.191
				c1.099,0,1.928,0.239,2.488,0.719c0.56,0.479,0.84,1.231,0.84,2.258v5.82H1078.477z M1075.742,391.169
				c0.666,0,1.201-0.187,1.605-0.559c0.403-0.372,0.605-0.895,0.605-1.566v-0.75l-1.109,0.047c-0.865,0.031-1.494,0.176-1.887,0.434
				c-0.394,0.258-0.59,0.652-0.59,1.184c0,0.386,0.114,0.684,0.344,0.895C1074.939,391.063,1075.283,391.169,1075.742,391.169z"/>
			<path d="M1090.047,390.997h1.25v4.461h-1.727v-3.039h-7.219v-8.641h1.836v7.188h4.023v-7.188h1.836V390.997z"/>
			<path d="M1094.625,383.778v4.43c0,0.516-0.042,1.273-0.125,2.273l4.336-6.703h2.242v8.641h-1.766v-4.352
				c0-0.239,0.014-0.628,0.043-1.164c0.028-0.536,0.053-0.927,0.074-1.172l-4.32,6.688h-2.242v-8.641H1094.625z"/>
			<path d="M1104.578,392.419h-2.055l2.406-3.539c-0.584-0.167-1.042-0.465-1.375-0.895c-0.334-0.43-0.5-0.962-0.5-1.598
				c0-0.817,0.291-1.457,0.875-1.918c0.583-0.461,1.38-0.691,2.391-0.691h3.938v8.641h-1.844v-3.328h-1.742L1104.578,392.419z
				 M1104.844,386.403c0,0.442,0.168,0.774,0.504,0.996s0.787,0.332,1.355,0.332h1.711v-2.563h-2c-0.5,0-0.887,0.106-1.16,0.32
				S1104.844,386.008,1104.844,386.403z"/>
		</g>
	</g>
	<g>
		<g>
			<path class="st2" d="M363.15,18.758c0-1.299,0.177-2.392,0.53-3.278s0.854-1.544,1.504-1.972s1.432-0.643,2.348-0.643
				c0.428,0,0.82,0.052,1.176,0.157v0.602c-0.333-0.123-0.734-0.185-1.203-0.185c-1.125,0-2.002,0.406-2.628,1.217
				s-0.979,1.992-1.056,3.541h0.089c0.346-0.447,0.743-0.784,1.189-1.012s0.918-0.342,1.415-0.342c0.934,0,1.665,0.267,2.191,0.8
				s0.79,1.269,0.79,2.208c0,1.021-0.277,1.826-0.831,2.417s-1.3,0.885-2.239,0.885c-1.012,0-1.811-0.386-2.396-1.159
				S363.15,20.143,363.15,18.758z M366.424,22.552c0.748,0,1.329-0.235,1.743-0.704s0.622-1.139,0.622-2.01
				c0-0.766-0.205-1.363-0.615-1.791s-0.968-0.643-1.675-0.643c-0.465,0-0.896,0.103-1.295,0.308s-0.717,0.478-0.954,0.817
				s-0.355,0.687-0.355,1.042c0,0.506,0.113,0.992,0.338,1.459s0.531,0.837,0.916,1.111S365.959,22.552,366.424,22.552z"/>
			<path class="st2" d="M343.377,39.092l0.424-1.196l2.14-5.51h0.937v7.431h-0.643v-6.61c-0.1,0.287-0.206,0.581-0.318,0.882
				s-0.855,2.21-2.232,5.729h-0.602l-2.058-5.223c-0.086-0.209-0.167-0.431-0.243-0.663s-0.158-0.483-0.25-0.752v6.638h-0.615
				v-7.431h0.896l2.146,5.469C343.128,38.296,343.268,38.709,343.377,39.092z"/>
			<path class="st2" d="M352.366,39.953c-1.08,0-1.922-0.333-2.526-0.998s-0.906-1.597-0.906-2.796c0-1.185,0.292-2.134,0.875-2.847
				s1.37-1.07,2.358-1.07c0.875,0,1.565,0.305,2.071,0.916s0.759,1.44,0.759,2.488v0.547h-5.353c0.009,1.021,0.247,1.8,0.714,2.338
				s1.136,0.807,2.006,0.807c0.424,0,0.796-0.03,1.118-0.089s0.728-0.187,1.22-0.383v0.615c-0.419,0.182-0.807,0.307-1.162,0.373
				S352.794,39.953,352.366,39.953z M352.168,32.844c-0.715,0-1.29,0.236-1.723,0.708s-0.686,1.152-0.759,2.041h4.594
				c0-0.861-0.187-1.535-0.561-2.02S352.829,32.844,352.168,32.844z"/>
			<path class="st2" d="M360.016,39.953c-1.062,0-1.894-0.335-2.495-1.005s-0.902-1.604-0.902-2.803c0-1.23,0.312-2.188,0.937-2.875
				s1.479-1.029,2.563-1.029c0.643,0,1.258,0.112,1.846,0.335l-0.185,0.602c-0.643-0.214-1.201-0.321-1.675-0.321
				c-0.912,0-1.602,0.281-2.071,0.844s-0.704,1.373-0.704,2.43c0,1.002,0.235,1.788,0.704,2.355s1.125,0.851,1.969,0.851
				c0.674,0,1.301-0.121,1.88-0.362v0.629C361.408,39.837,360.786,39.953,360.016,39.953z"/>
			<path class="st2" d="M363.591,39.816h-0.854l2.242-3.206c-0.684-0.127-1.177-0.365-1.48-0.711s-0.455-0.791-0.455-1.333
				c0-0.674,0.227-1.207,0.68-1.596s1.063-0.584,1.829-0.584h3.063v7.431h-0.67v-3.124h-2.27L363.591,39.816z M363.755,34.539
				c0,0.51,0.165,0.89,0.496,1.138s0.828,0.373,1.494,0.373h2.201v-3.021h-2.406c-0.565,0-1.004,0.129-1.316,0.386
				S363.755,34.047,363.755,34.539z"/>
			<path class="st2" d="M377.885,42.339h-0.677v-2.522h-6.104v-7.431h0.677v6.788h4.437v-6.788h0.67v6.788h0.998V42.339z"/>
			<path class="st2" d="M382.465,39.953c-1.08,0-1.922-0.333-2.526-0.998s-0.906-1.597-0.906-2.796c0-1.185,0.292-2.134,0.875-2.847
				s1.37-1.07,2.358-1.07c0.875,0,1.565,0.305,2.071,0.916s0.759,1.44,0.759,2.488v0.547h-5.353c0.009,1.021,0.247,1.8,0.714,2.338
				s1.136,0.807,2.006,0.807c0.424,0,0.796-0.03,1.118-0.089s0.728-0.187,1.22-0.383v0.615c-0.419,0.182-0.807,0.307-1.162,0.373
				S382.893,39.953,382.465,39.953z M382.267,32.844c-0.715,0-1.29,0.236-1.723,0.708s-0.686,1.152-0.759,2.041h4.594
				c0-0.861-0.187-1.535-0.561-2.02S382.927,32.844,382.267,32.844z"/>
			<path class="st2" d="M392.849,34.177c0,0.469-0.116,0.837-0.349,1.104s-0.611,0.452-1.135,0.557v0.048
				c0.597,0.068,1.029,0.24,1.295,0.516s0.4,0.671,0.4,1.186c0,0.715-0.236,1.266-0.708,1.651s-1.161,0.578-2.068,0.578h-3.138
				v-7.431h3.151c0.848,0,1.484,0.153,1.911,0.458S392.849,33.593,392.849,34.177z M392.131,34.231c0-0.433-0.155-0.742-0.465-0.926
				s-0.775-0.277-1.395-0.277h-2.447v2.543h2.365c0.693,0,1.189-0.107,1.49-0.321S392.131,34.696,392.131,34.231z M392.343,37.574
				c0-0.912-0.7-1.367-2.099-1.367h-2.42v2.967h2.516C391.675,39.174,392.343,38.641,392.343,37.574z"/>
		</g>
	</g>
	<g>
		<g>
			<path class="st2" d="M593.671,23.017h-0.67v-7.28c0-0.661,0.027-1.347,0.082-2.058c-0.068,0.068-0.139,0.134-0.212,0.198
				s-0.777,0.618-2.112,1.661l-0.39-0.485l2.714-2.03h0.588V23.017z"/>
			<path class="st2" d="M604.027,23.017h-6.255v-0.602l2.659-2.775c0.748-0.775,1.271-1.367,1.572-1.777s0.522-0.802,0.663-1.176
				c0.142-0.374,0.212-0.766,0.212-1.176c0-0.597-0.195-1.083-0.588-1.456c-0.392-0.374-0.899-0.561-1.524-0.561
				c-0.834,0-1.631,0.303-2.393,0.909l-0.369-0.472c0.834-0.702,1.759-1.053,2.775-1.053c0.871,0,1.556,0.232,2.055,0.697
				s0.748,1.105,0.748,1.921c0,0.661-0.167,1.3-0.502,1.917s-0.947,1.38-1.836,2.287l-2.563,2.632v0.027h5.346V23.017z"/>
			<path class="st2" d="M574.127,39.092l0.424-1.196l2.14-5.51h0.937v7.431h-0.643v-6.61c-0.1,0.287-0.206,0.581-0.318,0.882
				s-0.855,2.21-2.232,5.729h-0.602l-2.058-5.223c-0.086-0.209-0.167-0.431-0.243-0.663s-0.158-0.483-0.25-0.752v6.638h-0.615
				v-7.431h0.896l2.146,5.469C573.878,38.296,574.018,38.709,574.127,39.092z"/>
			<path class="st2" d="M583.116,39.953c-1.08,0-1.922-0.333-2.526-0.998s-0.906-1.597-0.906-2.796c0-1.185,0.292-2.134,0.875-2.847
				s1.37-1.07,2.358-1.07c0.875,0,1.565,0.305,2.071,0.916s0.759,1.44,0.759,2.488v0.547h-5.353c0.009,1.021,0.247,1.8,0.714,2.338
				s1.136,0.807,2.006,0.807c0.424,0,0.796-0.03,1.118-0.089s0.728-0.187,1.22-0.383v0.615c-0.419,0.182-0.807,0.307-1.162,0.373
				S583.544,39.953,583.116,39.953z M582.918,32.844c-0.715,0-1.29,0.236-1.723,0.708s-0.686,1.152-0.759,2.041h4.594
				c0-0.861-0.187-1.535-0.561-2.02S583.579,32.844,582.918,32.844z"/>
			<path class="st2" d="M590.766,39.953c-1.062,0-1.894-0.335-2.495-1.005s-0.902-1.604-0.902-2.803c0-1.23,0.312-2.188,0.937-2.875
				s1.479-1.029,2.563-1.029c0.643,0,1.258,0.112,1.846,0.335l-0.185,0.602c-0.643-0.214-1.201-0.321-1.675-0.321
				c-0.912,0-1.602,0.281-2.071,0.844s-0.704,1.373-0.704,2.43c0,1.002,0.235,1.788,0.704,2.355s1.125,0.851,1.969,0.851
				c0.674,0,1.301-0.121,1.88-0.362v0.629C592.158,39.837,591.536,39.953,590.766,39.953z"/>
			<path class="st2" d="M594.341,39.816h-0.854l2.242-3.206c-0.684-0.127-1.177-0.365-1.48-0.711s-0.455-0.791-0.455-1.333
				c0-0.674,0.227-1.207,0.68-1.596s1.063-0.584,1.829-0.584h3.063v7.431h-0.67v-3.124h-2.27L594.341,39.816z M594.505,34.539
				c0,0.51,0.165,0.89,0.496,1.138s0.828,0.373,1.494,0.373h2.201v-3.021h-2.406c-0.565,0-1.004,0.129-1.316,0.386
				S594.505,34.047,594.505,34.539z"/>
			<path class="st2" d="M608.635,42.339h-0.677v-2.522h-6.104v-7.431h0.677v6.788h4.437v-6.788h0.67v6.788h0.998V42.339z"/>
			<path class="st2" d="M613.215,39.953c-1.08,0-1.922-0.333-2.525-0.998c-0.604-0.666-0.906-1.597-0.906-2.796
				c0-1.185,0.292-2.134,0.875-2.847c0.584-0.713,1.37-1.07,2.358-1.07c0.875,0,1.565,0.305,2.071,0.916s0.759,1.44,0.759,2.488
				v0.547h-5.353c0.01,1.021,0.247,1.8,0.715,2.338c0.467,0.538,1.136,0.807,2.006,0.807c0.424,0,0.797-0.03,1.118-0.089
				s0.728-0.187,1.22-0.383v0.615c-0.419,0.182-0.807,0.307-1.162,0.373S613.644,39.953,613.215,39.953z M613.017,32.844
				c-0.715,0-1.289,0.236-1.723,0.708c-0.433,0.472-0.686,1.152-0.759,2.041h4.594c0-0.861-0.187-1.535-0.561-2.02
				C614.195,33.086,613.678,32.844,613.017,32.844z"/>
			<path class="st2" d="M623.599,34.177c0,0.469-0.116,0.837-0.349,1.104s-0.61,0.452-1.135,0.557v0.048
				c0.598,0.068,1.029,0.24,1.296,0.516s0.399,0.671,0.399,1.186c0,0.715-0.235,1.266-0.707,1.651s-1.161,0.578-2.068,0.578h-3.138
				v-7.431h3.151c0.848,0,1.484,0.153,1.911,0.458C623.386,33.149,623.599,33.593,623.599,34.177z M622.881,34.231
				c0-0.433-0.154-0.742-0.465-0.926c-0.31-0.185-0.774-0.277-1.395-0.277h-2.447v2.543h2.365c0.693,0,1.189-0.107,1.49-0.321
				S622.881,34.696,622.881,34.231z M623.093,37.574c0-0.912-0.699-1.367-2.099-1.367h-2.42v2.967h2.516
				C622.426,39.174,623.093,38.641,623.093,37.574z"/>
		</g>
	</g>
	<g>
		<g>
			<path class="st2" d="M827.421,23.017h-0.67v-7.28c0-0.661,0.027-1.347,0.082-2.058c-0.068,0.068-0.14,0.134-0.212,0.198
				c-0.073,0.064-0.777,0.618-2.112,1.661l-0.39-0.485l2.714-2.03h0.588V23.017z"/>
			<path class="st2" d="M834.729,12.852c0.848,0,1.53,0.216,2.047,0.649c0.518,0.433,0.776,1.019,0.776,1.757
				c0,0.51-0.161,0.961-0.482,1.354s-0.842,0.754-1.562,1.087c0.875,0.36,1.49,0.754,1.846,1.183s0.533,0.948,0.533,1.559
				c0,0.825-0.288,1.483-0.865,1.976c-0.576,0.492-1.35,0.738-2.32,0.738c-1.008,0-1.78-0.23-2.317-0.69
				c-0.538-0.46-0.807-1.13-0.807-2.01c0-0.597,0.188-1.121,0.567-1.572c0.378-0.451,0.964-0.836,1.757-1.155
				c-0.734-0.346-1.251-0.712-1.552-1.097s-0.451-0.847-0.451-1.384c0-0.479,0.12-0.899,0.362-1.261
				c0.241-0.362,0.58-0.642,1.015-0.837C833.711,12.95,834.195,12.852,834.729,12.852z M832.274,20.556
				c0,0.629,0.213,1.117,0.639,1.463c0.427,0.346,1.022,0.52,1.788,0.52c0.747,0,1.349-0.184,1.805-0.55
				c0.455-0.367,0.684-0.865,0.684-1.494c0-0.565-0.179-1.024-0.537-1.377c-0.357-0.353-1.047-0.724-2.067-1.111
				c-0.839,0.324-1.434,0.681-1.784,1.073C832.449,19.471,832.274,19.963,832.274,20.556z M834.715,13.467
				c-0.643,0-1.159,0.158-1.549,0.475s-0.584,0.751-0.584,1.302c0,0.319,0.071,0.601,0.215,0.844s0.352,0.465,0.622,0.663
				c0.271,0.198,0.726,0.43,1.364,0.694c0.742-0.287,1.275-0.604,1.6-0.95c0.323-0.346,0.485-0.763,0.485-1.251
				c0-0.547-0.192-0.98-0.578-1.299C835.905,13.626,835.38,13.467,834.715,13.467z"/>
			<path class="st2" d="M807.877,39.092l0.424-1.196l2.14-5.51h0.937v7.431h-0.643v-6.61c-0.101,0.287-0.206,0.581-0.318,0.882
				c-0.111,0.301-0.855,2.21-2.231,5.729h-0.602l-2.058-5.223c-0.087-0.209-0.168-0.431-0.243-0.663s-0.158-0.483-0.249-0.752v6.638
				h-0.615v-7.431h0.896l2.146,5.469C807.628,38.296,807.768,38.709,807.877,39.092z"/>
			<path class="st2" d="M816.866,39.953c-1.08,0-1.922-0.333-2.526-0.998c-0.604-0.666-0.905-1.597-0.905-2.796
				c0-1.185,0.291-2.134,0.875-2.847c0.583-0.713,1.369-1.07,2.358-1.07c0.875,0,1.565,0.305,2.071,0.916s0.759,1.44,0.759,2.488
				v0.547h-5.353c0.009,1.021,0.247,1.8,0.714,2.338c0.468,0.538,1.136,0.807,2.007,0.807c0.424,0,0.796-0.03,1.117-0.089
				s0.729-0.187,1.221-0.383v0.615c-0.42,0.182-0.807,0.307-1.162,0.373S817.294,39.953,816.866,39.953z M816.668,32.844
				c-0.716,0-1.29,0.236-1.723,0.708c-0.434,0.472-0.687,1.152-0.759,2.041h4.594c0-0.861-0.188-1.535-0.561-2.02
				C817.846,33.086,817.328,32.844,816.668,32.844z"/>
			<path class="st2" d="M824.516,39.953c-1.063,0-1.894-0.335-2.495-1.005s-0.902-1.604-0.902-2.803c0-1.23,0.312-2.188,0.937-2.875
				c0.624-0.686,1.479-1.029,2.563-1.029c0.643,0,1.258,0.112,1.846,0.335l-0.185,0.602c-0.643-0.214-1.201-0.321-1.675-0.321
				c-0.912,0-1.603,0.281-2.071,0.844c-0.47,0.563-0.704,1.373-0.704,2.43c0,1.002,0.234,1.788,0.704,2.355
				c0.469,0.567,1.125,0.851,1.969,0.851c0.674,0,1.301-0.121,1.88-0.362v0.629C825.907,39.837,825.285,39.953,824.516,39.953z"/>
			<path class="st2" d="M828.091,39.816h-0.854l2.242-3.206c-0.684-0.127-1.177-0.365-1.48-0.711
				c-0.303-0.346-0.454-0.791-0.454-1.333c0-0.674,0.227-1.207,0.68-1.596c0.454-0.39,1.063-0.584,1.829-0.584h3.063v7.431h-0.67
				v-3.124h-2.27L828.091,39.816z M828.255,34.539c0,0.51,0.165,0.89,0.495,1.138c0.331,0.249,0.828,0.373,1.494,0.373h2.201v-3.021
				h-2.406c-0.565,0-1.004,0.129-1.316,0.386C828.411,33.672,828.255,34.047,828.255,34.539z"/>
			<path class="st2" d="M842.385,42.339h-0.677v-2.522h-6.104v-7.431h0.677v6.788h4.437v-6.788h0.67v6.788h0.998V42.339z"/>
			<path class="st2" d="M846.965,39.953c-1.08,0-1.922-0.333-2.526-0.998c-0.604-0.666-0.905-1.597-0.905-2.796
				c0-1.185,0.291-2.134,0.875-2.847c0.583-0.713,1.369-1.07,2.358-1.07c0.875,0,1.565,0.305,2.071,0.916s0.759,1.44,0.759,2.488
				v0.547h-5.353c0.009,1.021,0.247,1.8,0.714,2.338c0.468,0.538,1.136,0.807,2.007,0.807c0.424,0,0.796-0.03,1.117-0.089
				s0.729-0.187,1.221-0.383v0.615c-0.42,0.182-0.807,0.307-1.162,0.373S847.393,39.953,846.965,39.953z M846.767,32.844
				c-0.716,0-1.29,0.236-1.723,0.708c-0.434,0.472-0.687,1.152-0.759,2.041h4.594c0-0.861-0.188-1.535-0.561-2.02
				C847.944,33.086,847.427,32.844,846.767,32.844z"/>
			<path class="st2" d="M857.349,34.177c0,0.469-0.116,0.837-0.349,1.104s-0.611,0.452-1.135,0.557v0.048
				c0.597,0.068,1.028,0.24,1.295,0.516s0.4,0.671,0.4,1.186c0,0.715-0.236,1.266-0.708,1.651s-1.161,0.578-2.067,0.578h-3.138
				v-7.431h3.151c0.848,0,1.484,0.153,1.91,0.458C857.136,33.149,857.349,33.593,857.349,34.177z M856.631,34.231
				c0-0.433-0.155-0.742-0.465-0.926c-0.311-0.185-0.775-0.277-1.395-0.277h-2.447v2.543h2.365c0.692,0,1.189-0.107,1.49-0.321
				S856.631,34.696,856.631,34.231z M856.843,37.574c0-0.912-0.7-1.367-2.099-1.367h-2.42v2.967h2.516
				C856.175,39.174,856.843,38.641,856.843,37.574z"/>
		</g>
	</g>
	<g>
		<g>
			<path class="st2" d="M1062.036,23.017h-6.255v-0.602l2.659-2.775c0.747-0.775,1.271-1.367,1.572-1.777s0.521-0.802,0.663-1.176
				c0.141-0.374,0.212-0.766,0.212-1.176c0-0.597-0.196-1.083-0.588-1.456c-0.393-0.374-0.9-0.561-1.524-0.561
				c-0.834,0-1.632,0.303-2.393,0.909l-0.369-0.472c0.834-0.702,1.759-1.053,2.775-1.053c0.87,0,1.555,0.232,2.054,0.697
				s0.749,1.105,0.749,1.921c0,0.661-0.168,1.3-0.503,1.917s-0.946,1.38-1.835,2.287l-2.563,2.632v0.027h5.346V23.017z"/>
			<path class="st2" d="M1070.8,20.467h-1.723v2.55h-0.643v-2.55h-5.141v-0.458l4.956-7.041h0.827v6.911h1.723V20.467z
				 M1068.435,19.879v-2.857c0-1.376,0.031-2.532,0.096-3.466h-0.055c-0.092,0.168-0.372,0.597-0.841,1.285l-3.527,5.038H1068.435z"
				/>
			<path class="st2" d="M1044.222,39.092l0.424-1.196l2.14-5.51h0.937v7.431h-0.643v-6.61c-0.101,0.287-0.206,0.581-0.318,0.882
				c-0.111,0.301-0.855,2.21-2.231,5.729h-0.602l-2.058-5.223c-0.087-0.209-0.168-0.431-0.243-0.663s-0.158-0.483-0.249-0.752v6.638
				h-0.615v-7.431h0.896l2.146,5.469C1043.973,38.296,1044.112,38.709,1044.222,39.092z"/>
			<path class="st2" d="M1053.211,39.953c-1.08,0-1.922-0.333-2.526-0.998c-0.604-0.666-0.905-1.597-0.905-2.796
				c0-1.185,0.291-2.134,0.875-2.847c0.583-0.713,1.369-1.07,2.358-1.07c0.875,0,1.565,0.305,2.071,0.916s0.759,1.44,0.759,2.488
				v0.547h-5.353c0.009,1.021,0.247,1.8,0.714,2.338c0.468,0.538,1.136,0.807,2.007,0.807c0.424,0,0.796-0.03,1.117-0.089
				s0.729-0.187,1.221-0.383v0.615c-0.42,0.182-0.807,0.307-1.162,0.373S1053.639,39.953,1053.211,39.953z M1053.013,32.844
				c-0.716,0-1.29,0.236-1.723,0.708c-0.434,0.472-0.687,1.152-0.759,2.041h4.594c0-0.861-0.188-1.535-0.561-2.02
				C1054.19,33.086,1053.673,32.844,1053.013,32.844z"/>
			<path class="st2" d="M1060.86,39.953c-1.063,0-1.894-0.335-2.495-1.005s-0.902-1.604-0.902-2.803c0-1.23,0.312-2.188,0.937-2.875
				c0.624-0.686,1.479-1.029,2.563-1.029c0.643,0,1.258,0.112,1.846,0.335l-0.185,0.602c-0.643-0.214-1.201-0.321-1.675-0.321
				c-0.912,0-1.603,0.281-2.071,0.844c-0.47,0.563-0.704,1.373-0.704,2.43c0,1.002,0.234,1.788,0.704,2.355
				c0.469,0.567,1.125,0.851,1.969,0.851c0.674,0,1.301-0.121,1.88-0.362v0.629C1062.252,39.837,1061.63,39.953,1060.86,39.953z"/>
			<path class="st2" d="M1064.436,39.816h-0.854l2.242-3.206c-0.684-0.127-1.177-0.365-1.48-0.711
				c-0.303-0.346-0.454-0.791-0.454-1.333c0-0.674,0.227-1.207,0.68-1.596c0.454-0.39,1.063-0.584,1.829-0.584h3.063v7.431h-0.67
				v-3.124h-2.27L1064.436,39.816z M1064.6,34.539c0,0.51,0.165,0.89,0.495,1.138c0.331,0.249,0.828,0.373,1.494,0.373h2.201v-3.021
				h-2.406c-0.565,0-1.004,0.129-1.316,0.386C1064.756,33.672,1064.6,34.047,1064.6,34.539z"/>
			<path class="st2" d="M1078.729,42.339h-0.677v-2.522h-6.104v-7.431h0.677v6.788h4.437v-6.788h0.67v6.788h0.998V42.339z"/>
			<path class="st2" d="M1084.82,39.816l-0.171-1.176h-0.055c-0.374,0.479-0.758,0.817-1.152,1.015
				c-0.394,0.198-0.86,0.297-1.397,0.297c-0.729,0-1.297-0.187-1.702-0.561c-0.406-0.374-0.608-0.891-0.608-1.552
				c0-0.725,0.302-1.288,0.905-1.688c0.604-0.401,1.478-0.613,2.622-0.636l1.415-0.041v-0.492c0-0.707-0.144-1.24-0.431-1.6
				s-0.75-0.54-1.388-0.54c-0.688,0-1.401,0.191-2.14,0.574l-0.253-0.588c0.815-0.383,1.622-0.574,2.42-0.574
				c0.815,0,1.425,0.212,1.828,0.636s0.605,1.084,0.605,1.982v4.942H1084.82z M1082.086,39.338c0.793,0,1.418-0.227,1.876-0.68
				s0.688-1.083,0.688-1.89v-0.731l-1.299,0.055c-1.044,0.05-1.788,0.213-2.232,0.489s-0.666,0.705-0.666,1.289
				c0,0.465,0.143,0.826,0.427,1.083C1081.164,39.209,1081.566,39.338,1082.086,39.338z"/>
		</g>
	</g>
	<line class="st3" x1="24.884" y1="306.185" x2="1159" y2="306.185"/>
	<line class="st3" x1="24.884" y1="97.19" x2="1159" y2="97.19"/>
	<line class="st0" x1="24.884" y1="149.439" x2="1159" y2="149.439"/>
	<line class="st0" x1="24.884" y1="201.688" x2="1159" y2="201.688"/>
	<line class="st0" x1="24.884" y1="253.936" x2="1159" y2="253.936"/>
	<circle class="st4" cx="366.25" cy="277.944" r="7.079"/>
	<circle class="st5" cx="598.5" cy="253.936" r="7.079"/>
	<circle class="st5" cx="830.75" cy="201.688" r="7.079"/>
	<circle class="st5" cx="1063" cy="123.315" r="7.079"/>
	<circle class="st4" cx="134" cy="306.185" r="7.079"/>
</g>
</svg>
